<svg xmlns="http://www.w3.org/2000/svg" viewBox="0 0 1200 900"><g data-name="Reception- Doctor's appointment"><path fill="#eff5f9" d="M805.62,63.41c29.62,8.61,162,50.9,218.45,164.85,79.26,159.88-54.91,331.51-91.71,378.59C848,714.79,622.39,916,397.81,834.87c-179.86-65-253.69-285-219.08-440.82C235.75,137.2,570.61-4.92,805.62,63.41Z"/><rect width="64.89" height="28.93" x="926.27" y="476.64" fill="none" stroke="#c9effb" stroke-miterlimit="10" stroke-width="2" rx="2"/><rect width="64.89" height="28.93" x="926.27" y="534.39" fill="none" stroke="#c9effb" stroke-miterlimit="10" stroke-width="2" rx="2"/><rect width="64.89" height="28.93" x="958.72" y="505.57" fill="#c9effb" rx="2"/><rect width="64.89" height="28.93" x="893.83" y="505.57" fill="#c9effb" rx="2"/><rect width="64.89" height="28.93" x="214.49" y="619.63" fill="none" stroke="#c9effb" stroke-miterlimit="10" stroke-width="2" rx="2"/><rect width="64.89" height="28.93" x="246.93" y="677.39" fill="none" stroke="#c9effb" stroke-miterlimit="10" stroke-width="2" rx="2"/><rect width="64.89" height="28.93" x="260.42" y="648.56" fill="#c9effb" rx="2"/><rect width="64.89" height="28.93" x="195.53" y="648.56" fill="#c9effb" rx="2"/><rect width="64.89" height="28.93" x="591.89" y="234.2" fill="#c9effb" rx="2"/><rect width="64.89" height="28.93" x="613.81" y="292.06" fill="#c9effb" rx="2"/><rect width="64.89" height="28.93" x="637.81" y="263.13" fill="none" stroke="#c9effb" stroke-miterlimit="10" stroke-width="2" rx="2"/><rect width="64.89" height="28.93" x="572.93" y="263.13" fill="none" stroke="#c9effb" stroke-miterlimit="10" stroke-width="2" rx="2"/><rect width="455.04" height="349.92" x="157.84" y="107.97" fill="#c9effb"/><path fill="#a8e5f9" d="M612.88,345.22c-12.59-3.45-34.14-7.18-73.46-11.31-110.89-11.63-132.12-2.18-169.92-21.6-46-23.64-68.91-65.6-76.32-79.2C265.32,182,271,139.52,265.7,108H157.84V457.89h455Z"/><path fill="#87dbf6" d="M615.71,101.63H155.93a5.74,5.74,0,0,0-5.74,5.74V458.75a5.74,5.74,0,0,0,5.74,5.74H615.71a5.74,5.74,0,0,0,5.74-5.74V107.37A5.74,5.74,0,0,0,615.71,101.63ZM603.56,445.4a5.31,5.31,0,0,1-5.31,5.31H173.39a5.3,5.3,0,0,1-5.3-5.31V120.71a5.3,5.3,0,0,1,5.3-5.3H598.25a5.3,5.3,0,0,1,5.31,5.3Z"/><rect width="5" height="335.69" x="456.81" y="115.02" fill="#87dbf6"/><rect width="5" height="335.69" x="309.83" y="115.02" fill="#87dbf6"/><rect width="435.47" height="5" x="168.09" y="354.05" fill="#87dbf6"/><rect width="435.47" height="5" x="168.09" y="207.07" fill="#87dbf6"/><g><path fill="#7bce34" d="M175,790.38l-1-.8c1-7.41,4.15-30,8.18-58.31,9.86-69.08,25.12-171.86,28.24-168.86,4.26,4.1,4.35,56.07-.56,117.09-.47,6-1,12-1.58,18.08q-.88,9.54-1.67,18.22c-2.26,5.49-4.66,11.11-7.19,16.78C182.63,770.31,175,790.38,175,790.38Z"/><path fill="#3c8f2d" d="M181.22,780.44s4.35-21,15-60.91,16.38-77.08,13.36-80.6C208.2,637.28,197.81,666,187.17,697c-4.77,32.63-9,63.06-11.44,80.36Z"/><path fill="#3c8f2d" d="M183,838l1.23-.34c1.91-7.24,7.73-29.32,14.88-57,17.49-67.56,43-168.3,38.93-166.73-5.52,2.15-25.6,50.08-44.55,108.29q-2.78,8.52-5.5,17.29-2.83,9.15-5.47,17.47c0,5.93,0,12,.18,18.25C183.69,816.55,183,838,183,838Z"/><path fill="#3c8f2d" d="M77.3,672.2a45.44,45.44,0,0,1,5.13-2.46c1.75-.74,3.54-1.38,5.35-2a73.25,73.25,0,0,1,11.16-2.59,70.78,70.78,0,0,1,23.49.23,59.12,59.12,0,0,1,11.75,3.4,57.58,57.58,0,0,1,5.6,2.7l1.36.76c.45.27.88.56,1.32.84.87.58,1.78,1.11,2.62,1.73a63.69,63.69,0,0,1,9.38,8.28l2.07,2.34c.16.2.35.39.5.58l.44.57.9,1.14,3.58,4.54c2.2,3.17,4.52,6.25,6.44,9.59l1.48,2.47c.24.42.5.83.73,1.24l.68,1.28L174,712c1.63,3.47,3.3,6.91,4.7,10.46l1.11,2.64,1,2.67,1,2.67.51,1.34.45,1.35c.61,1.81,1.3,3.58,2,5.37s1.32,3.59,2,5.38,1.21,3.64,1.73,5.48.87,3.72,1.21,5.6c.15,1,.27,1.9.37,2.85s.22,1.91.3,2.86c.11,1.92.21,3.83.18,5.77a56.39,56.39,0,0,1-.35,5.79,39,39,0,0,1-1.05,5.8l-11.88.43c-1.3-3.36-2.25-6.69-3.18-10l-.69-2.48c-.21-.83-.44-1.66-.63-2.49q-.67-2.48-1.23-5c-.42-1.65-.76-3.31-1.05-5s-.62-3.36-.89-5-.65-3.36-1-5-.89-3.3-1.4-4.94l-.4-1.22-.44-1.2-.9-2.4c-.3-.8-.6-1.6-.92-2.39l-1-2.34c-1.32-3.15-2.93-6.15-4.46-9.19l-2.53-4.42-.63-1.1c-.22-.36-.46-.71-.68-1.07L153.78,711l-1.35-2.15c-.44-.72-1-1.38-1.44-2.08l-2.89-4.16-3.13-4-.79-1-.39-.49c-.13-.17-.26-.29-.39-.44l-1.55-1.7c-.51-.57-1.1-1.06-1.64-1.6l-.82-.79c-.28-.26-.58-.49-.87-.74-.6-.48-1.15-1-1.76-1.47l-1.83-1.36c-.6-.47-1.26-.86-1.88-1.3-.32-.21-.63-.43-1-.63l-1-.59c-1.29-.83-2.66-1.54-4-2.31a80.77,80.77,0,0,0-8.65-3.87A93.9,93.9,0,0,0,99,675.41c-3.42-.53-6.91-.92-10.47-1.19s-7.18-.46-10.83-.53Z"/><path fill="#7bce34" d="M176.9 777.54l-.05-1.35c0-.85-.06-1.71-.11-2.56l-.23-2.55c-.26-3.4-.83-6.76-1.33-10.12l-1-5-.24-1.24c-.09-.42-.21-.82-.31-1.23L173 751l-.6-2.46c-.18-.83-.49-1.62-.71-2.43l-1.42-4.86-1.71-4.76-.43-1.19-.22-.59c-.07-.2-.16-.36-.23-.54l-.93-2.1c-.3-.71-.71-1.36-1-2l-.53-1c-.18-.34-.4-.65-.59-1-.41-.64-.78-1.31-1.2-1.94l-1.31-1.88c-.42-.63-.92-1.21-1.37-1.82-.23-.3-.46-.61-.7-.91l-.27-.31c1.3 2.53 2.61 5.07 3.71 7.71l1 2.34c.32.79.62 1.59.92 2.39l.9 2.4.44 1.2.4 1.22c.51 1.64 1 3.27 1.4 4.94s.69 3.36 1 5 .54 3.38.89 5 .63 3.34 1.05 5 .78 3.32 1.23 5c.19.83.42 1.66.63 2.49l.69 2.48C174.89 771.45 175.77 774.48 176.9 777.54zM127.1 684.22c1.35.77 2.72 1.48 4 2.31l1 .59c.32.2.63.42 1 .63.62.44 1.28.83 1.88 1.3l1.83 1.36.07.06a70.43 70.43 0 0120.88 7.41 55 55 0 0114.52 11.28l.59.65-1.54-2.92-.68-1.28c-.23-.41-.49-.82-.73-1.24l-1.48-2.47c-1.92-3.34-4.24-6.42-6.44-9.59l-3.58-4.54-.9-1.14-.44-.57c-.15-.19-.34-.38-.5-.58l-2.07-2.34a63.69 63.69 0 00-9.38-8.28c-.84-.63-1.75-1.15-2.62-1.73-.44-.28-.87-.57-1.32-.84l-1.36-.76a57.58 57.58 0 00-5.6-2.7 59.12 59.12 0 00-11.75-3.4 70.78 70.78 0 00-23.49-.23 73.25 73.25 0 00-11.16 2.59c-1.81.57-3.6 1.21-5.35 2a45.44 45.44 0 00-5.13 2.46l.42 1.49c3.65.07 7.28.23 10.83.53s7 .66 10.47 1.19a93.9 93.9 0 0119.43 4.94A80.77 80.77 0 01127.1 684.22zM293 659.26a45 45 0 00-5.44-1.7c-1.84-.47-3.7-.84-5.57-1.15a74.77 74.77 0 00-11.42-.95 70.54 70.54 0 00-23.21 3.63 58.22 58.22 0 00-11.13 5.06 55.44 55.44 0 00-5.15 3.49l-1.24 1c-.4.32-.79.67-1.19 1-.78.7-1.59 1.35-2.34 2.09a64.09 64.09 0 00-8.08 9.56l-1.71 2.61c-.13.22-.29.44-.41.65l-.36.63-.72 1.25-2.89 5c-1.71 3.44-3.57 6.83-5 10.41l-1.11 2.66c-.18.45-.37.89-.54 1.34l-.48 1.35-1.93 5.43c-1.11 3.66-2.26 7.31-3.13 11l-.72 2.78-.62 2.79-.62 2.79-.3 1.39-.26 1.41c-.34 1.87-.77 3.73-1.16 5.59s-.78 3.74-1.19 5.61-.67 3.77-.92 5.67-.32 3.81-.39 5.72c0 1 0 1.92 0 2.88s.06 1.91.12 2.87c.17 1.91.34 3.82.65 5.73a56.21 56.21 0 001.19 5.68 38.66 38.66 0 001.88 5.59l11.81-1.3c.8-3.51 1.26-6.94 1.7-10.36l.32-2.56c.09-.85.2-1.7.27-2.55.2-1.7.37-3.39.5-5.09s.27-3.39.32-5.1.12-3.4.14-5.12.16-3.42.27-5.13.41-3.4.68-5.09l.21-1.26.27-1.26.54-2.5c.18-.84.37-1.67.57-2.5l.67-2.47c.85-3.31 2-6.51 3.09-9.73l1.86-4.74.47-1.19c.16-.39.35-.77.52-1.15l1-2.32 1-2.32c.32-.78.76-1.5 1.12-2.27l2.26-4.53 2.52-4.38.64-1.09.31-.55c.11-.18.22-.32.33-.49l1.29-1.9c.41-.64.93-1.21 1.38-1.83l.7-.9c.24-.29.51-.57.76-.86.52-.56 1-1.15 1.52-1.7l1.62-1.61c.52-.55 1.12-1 1.67-1.56.29-.25.56-.52.85-.77s.6-.47.89-.72c1.16-1 2.41-1.91 3.64-2.86a77.75 77.75 0 018-5.09A94.32 94.32 0 01272 665.58c3.31-1 6.71-1.91 10.18-2.7s7-1.49 10.65-2.09z"/><path fill="#3c8f2d" d="M240.12,682.71l.13-.11a66.93,66.93,0,0,0-9.77,3.77,59.15,59.15,0,0,0-10.43,6.38,56.5,56.5,0,0,0-4.69,4.09l-1.11,1.09c-.36.38-.7.77-1.06,1.16-.68.78-1.41,1.53-2.06,2.35a63.75,63.75,0,0,0-6.86,10.47l-1.38,2.8c-.11.23-.24.48-.33.7l-.28.67-.56,1.33-.11.25c-.58,2-1.13,4-1.6,6l-.72,2.78-.62,2.79-.62,2.79-.3,1.39-.26,1.41c-.34,1.87-.77,3.73-1.16,5.59s-.78,3.74-1.19,5.61-.67,3.77-.92,5.67-.32,3.81-.39,5.72c0,1,0,1.92,0,2.88s.06,1.91.12,2.87c.17,1.91.34,3.82.65,5.73a56.21,56.21,0,0,0,1.19,5.68,38.66,38.66,0,0,0,1.88,5.59l9.26-1,0-.22c-.13-1.71-.25-3.42-.35-5.13s0-3.42.05-5.13l.06-1.28.11-1.28.23-2.55c.08-.85.16-1.7.26-2.55l.37-2.53c.44-3.39,1.2-6.71,1.88-10l1.27-4.93.32-1.23c.11-.41.25-.81.37-1.22l.76-2.42.73-2.43c.23-.81.57-1.59.84-2.39l1.69-4.77.37-.87.08-.3c.85-3.31,2-6.51,3.09-9.73l1.86-4.74.47-1.19c.16-.39.35-.77.52-1.15l1-2.32,1-2.32c.32-.78.76-1.5,1.12-2.27l2.26-4.53,2.52-4.38.64-1.09.31-.55c.11-.18.22-.32.33-.49l1.29-1.9c.41-.64.93-1.21,1.38-1.83l.7-.9c.24-.29.51-.57.76-.86.52-.56,1-1.15,1.52-1.7l1.62-1.61C239,683.72,239.57,683.24,240.12,682.71Z"/><path fill="#7bce34" d="M208,782.51l-1.28-.15c-3-6.83-12.33-27.7-23.83-53.84-28.11-63.87-69.43-159.21-65.19-158.31,5.78,1.23,33.3,45.32,61.36,99.73q4.09,8,8.2,16.19,4.28,8.57,8.2,16.35c1,5.85,1.91,11.9,2.75,18C203.85,761.45,208,782.51,208,782.51Z"/><path fill="#3c8f2d" d="M208,770.8s-7.41-20.14-19.39-59.66-26.8-74.11-31.22-75.5c-2.08-.66,4.27,29.23,11.59,61.16,13.19,30.23,25.63,58.33,32.73,74.29Z"/><path fill="#7bce34" d="M208,782.51l-1.28-.15-19.78-2.23s-2-23.74-4.05-51.61c-1.47-19.78-3-41.66-3.83-58.58-.88-17.35-1.07-29.49.17-28.87,3.53,1.76,10.7,28.36,16.23,61.41,1,5.85,1.91,11.9,2.75,18C203.85,761.45,208,782.51,208,782.51Z"/><path fill="#7bce34" d="M322.82,762.35c-5.92-4.91-11.73-9.4-17.08-14-2.66-2.31-5.24-4.6-7.56-7a59.61,59.61,0,0,1-6.15-7.12,41,41,0,0,1-2.27-3.48q-.22-.43-.48-.84c-.16-.28-.28-.56-.42-.83l-1.3-2.56A47.15,47.15,0,0,0,284,721a49,49,0,0,0-4.37-5,52.63,52.63,0,0,0-10.56-8,50.25,50.25,0,0,0-12.35-5.14,37.44,37.44,0,0,0-6.84-1.15,31,31,0,0,0-7.24.28,27.59,27.59,0,0,0-7.29,2.17A33.16,33.16,0,0,0,229.1,708a40.19,40.19,0,0,0-5.09,4.58,49.29,49.29,0,0,0-4.19,5.06,63.74,63.74,0,0,0-6.28,10.92,91,91,0,0,0-6.45,23.16c-.3,1.94-.6,3.88-.85,5.82l-.39,2.9c-.11,1-.2,1.94-.34,2.91-.46,3.86-.9,7.71-1.66,11.56l18.52.64a49.2,49.2,0,0,1-.16-10.5,81.46,81.46,0,0,1,1.52-10.27c.72-3.37,1.6-6.67,2.61-9.87s2.11-6.35,3.36-9.35c.62-1.5,1.25-3,2-4.4s1.42-2.82,2.21-4.14a41.45,41.45,0,0,1,2.48-3.76,25.69,25.69,0,0,1,2.77-3.19,16.53,16.53,0,0,1,3-2.33,10.9,10.9,0,0,1,3.17-1.3,15,15,0,0,1,3.78-.35,18.65,18.65,0,0,1,4.06.61,21.38,21.38,0,0,1,7.71,4,30.35,30.35,0,0,1,6,6.55c.85,1.23,1.62,2.5,2.36,3.79s1.4,2.63,2.07,4l.47,1,.11.25c0,.09.07.15.15.31l.42.82c.29.54.56,1.1.86,1.62s.63,1,1,1.53a36.21,36.21,0,0,0,4.32,5.38,50.9,50.9,0,0,0,10,7.94c1.76,1.07,3.52,2.07,5.33,3s3.62,1.69,5.46,2.41a74.5,74.5,0,0,0,11.24,3.42c1.91.41,3.83.76,5.76,1a47.74,47.74,0,0,0,5.89.43Z"/><path fill="#3c8f2d" d="M205.85,760.41l.39-2.9c.25-1.94.55-3.88.85-5.82a91,91,0,0,1,6.45-23.16,63.74,63.74,0,0,1,6.28-10.92,49.29,49.29,0,0,1,4.19-5.06A40.19,40.19,0,0,1,229.1,708a33.5,33.5,0,0,1,3.34-2.24c22.59,1.27,30.07,12.16,32.54,19a28.41,28.41,0,0,0-4.18-4.1,21.38,21.38,0,0,0-7.71-4,18.65,18.65,0,0,0-4.06-.61,15,15,0,0,0-3.78.35,10.9,10.9,0,0,0-3.17,1.3,16.53,16.53,0,0,0-3,2.33,25.69,25.69,0,0,0-2.77,3.19,41.45,41.45,0,0,0-2.48,3.76c-.79,1.32-1.52,2.7-2.21,4.14s-1.35,2.9-2,4.4c-1.25,3-2.33,6.14-3.36,9.35s-1.89,6.5-2.61,9.87A81.46,81.46,0,0,0,222.21,765a49.2,49.2,0,0,0,.16,10.5l-18.52-.64c.76-3.85,1.2-7.7,1.66-11.56C205.65,762.35,205.74,761.38,205.85,760.41Z"/><path fill="#7bce34" d="M60.43,762.35c5.92-4.91,11.74-9.4,17.08-14,2.66-2.31,5.24-4.6,7.56-7a57.84,57.84,0,0,0,6.15-7.12,38.73,38.73,0,0,0,2.27-3.48q.23-.43.48-.84c.17-.28.28-.56.42-.83l1.3-2.56A48.47,48.47,0,0,1,99.26,721a49.12,49.12,0,0,1,4.38-5,52.29,52.29,0,0,1,10.55-8,50.41,50.41,0,0,1,12.35-5.14,37.4,37.4,0,0,1,6.85-1.15,31.05,31.05,0,0,1,7.24.28,27.52,27.52,0,0,1,7.28,2.17,33.25,33.25,0,0,1,6.25,3.77,40.89,40.89,0,0,1,5.09,4.58,50.5,50.5,0,0,1,4.18,5.06,63.74,63.74,0,0,1,6.28,10.92,91,91,0,0,1,6.45,23.16c.3,1.94.6,3.88.85,5.82l.39,2.9c.12,1,.2,1.94.34,2.91.47,3.86.9,7.71,1.66,11.56l-18.52.64A49.2,49.2,0,0,0,161,765a81.46,81.46,0,0,0-1.52-10.27,101.3,101.3,0,0,0-2.61-9.87c-1-3.21-2.11-6.35-3.36-9.35-.62-1.5-1.25-3-2-4.4s-1.42-2.82-2.21-4.14a39.44,39.44,0,0,0-2.48-3.76,25.64,25.64,0,0,0-2.76-3.19,17.28,17.28,0,0,0-2.95-2.33,11,11,0,0,0-3.18-1.3,15,15,0,0,0-3.78-.35,18.74,18.74,0,0,0-4.06.61,21.38,21.38,0,0,0-7.71,4,30.35,30.35,0,0,0-6,6.55c-.85,1.23-1.62,2.5-2.36,3.79s-1.4,2.63-2.06,4l-.47,1-.12.25-.15.31-.42.82c-.28.54-.56,1.1-.86,1.62s-.62,1-.94,1.53a36.26,36.26,0,0,1-4.33,5.38,50.9,50.9,0,0,1-10,7.94c-1.75,1.07-3.52,2.07-5.33,3s-3.62,1.69-5.46,2.41a74.5,74.5,0,0,1-11.24,3.42c-1.91.41-3.82.76-5.76,1A47.58,47.58,0,0,1,61,764Z"/><path fill="#3c8f2d" d="M177.4,760.41l-.39-2.9c-.25-1.94-.55-3.88-.85-5.82a91,91,0,0,0-6.45-23.16,63.74,63.74,0,0,0-6.28-10.92,50.5,50.5,0,0,0-4.18-5.06,40.89,40.89,0,0,0-5.09-4.58,34.86,34.86,0,0,0-3.35-2.24c-22.59,1.27-30.07,12.16-32.53,19a27.87,27.87,0,0,1,4.17-4.1,21.38,21.38,0,0,1,7.71-4,18.74,18.74,0,0,1,4.06-.61,15,15,0,0,1,3.78.35,11,11,0,0,1,3.18,1.3,17.28,17.28,0,0,1,2.95,2.33,25.64,25.64,0,0,1,2.76,3.19,39.44,39.44,0,0,1,2.48,3.76c.79,1.32,1.52,2.7,2.21,4.14s1.35,2.9,2,4.4c1.25,3,2.33,6.14,3.36,9.35a101.3,101.3,0,0,1,2.61,9.87A81.46,81.46,0,0,1,161,765a49.2,49.2,0,0,1-.16,10.5l18.52-.64c-.76-3.85-1.19-7.7-1.66-11.56C177.6,762.35,177.52,761.38,177.4,760.41Z"/><path fill="#abbcca" d="M224,853.67H168a14.6,14.6,0,0,1-14.43-12.43l-9.87-65.75c-.69-4.56,32.83-1,53.35-1.16,19.33-.19,50.93-2,50.59.29l-9.19,66.62A14.6,14.6,0,0,1,224,853.67Z"/><path fill="#91a6b5" d="M195.65,774.35c-20.52.2-52.66-3.42-52,1.14l9.87,65.75A14.6,14.6,0,0,0,168,853.67h22.16A35.33,35.33,0,0,1,181,830.24c0-1.79.21-13.33,8.6-22.53,5-5.5,13.12-8.31,29.35-13.94,7.8-2.7,14-4.07,20.76-9.78a47.89,47.89,0,0,0,7.66-7.73l.23-1.64C248,772.34,215,774.16,195.65,774.35Z"/></g><g><path fill="#a2aee6" d="M939.84,304.51h-113a3.08,3.08,0,0,1-3.07-3.07V179.15a3.07,3.07,0,0,1,3.07-3.07H960.77a3.06,3.06,0,0,1,3.07,3.07V281.42Z"/><rect width="19.88" height="19.88" x="896.93" y="204.3" fill="#c0d6f2"/><rect width="19.88" height="19.88" x="924.5" y="204.3" fill="#c0d6f2"/><rect width="19.88" height="19.88" x="896.93" y="228.84" fill="#c0d6f2"/><rect width="19.88" height="19.88" x="924.5" y="228.84" fill="#c0d6f2"/><rect width="19.88" height="19.88" x="896.93" y="253.39" fill="#c0d6f2"/><rect width="19.88" height="19.88" x="924.5" y="253.39" fill="#c0d6f2"/><rect width="19.88" height="19.88" x="841.54" y="253.39" fill="#c0d6f2"/><rect width="19.88" height="19.88" x="841.54" y="277.91" fill="#c0d6f2"/><rect width="19.88" height="19.88" x="841.54" y="228.84" fill="#c0d6f2"/><rect width="19.88" height="19.88" x="868.55" y="253.39" fill="#c0d6f2"/><rect width="19.88" height="19.88" x="868.55" y="228.84" fill="#c0d6f2"/><path fill="#a2aee6" d="M960.77,304.51a3.07,3.07,0,0,0,3.07-3.07v-20l-24,23.09Z"/><path fill="#ea8826" d="M847.81 190.47a2.3 2.3 0 01-2.3-2.31V166.08a2.3 2.3 0 014.6 0v22.08A2.3 2.3 0 01847.81 190.47zM832.47 190.47a2.3 2.3 0 01-2.3-2.31V166.08a2.3 2.3 0 114.6 0v22.08A2.3 2.3 0 01832.47 190.47zM863.15 190.47a2.3 2.3 0 01-2.3-2.31V166.08a2.3 2.3 0 014.6 0v22.08A2.3 2.3 0 01863.15 190.47zM878.49 190.47a2.3 2.3 0 01-2.3-2.31V166.08a2.3 2.3 0 114.6 0v22.08A2.3 2.3 0 01878.49 190.47zM893.83 190.47a2.3 2.3 0 01-2.3-2.31V166.08a2.3 2.3 0 114.6 0v22.08A2.3 2.3 0 01893.83 190.47zM909.17 190.47a2.3 2.3 0 01-2.31-2.31V166.08a2.31 2.31 0 014.61 0v22.08A2.3 2.3 0 01909.17 190.47zM924.5 190.47a2.3 2.3 0 01-2.3-2.31V166.08a2.31 2.31 0 014.61 0v22.08A2.3 2.3 0 01924.5 190.47zM939.84 190.47a2.3 2.3 0 01-2.3-2.31V166.08a2.3 2.3 0 114.6 0v22.08A2.3 2.3 0 01939.84 190.47zM955.18 190.47a2.3 2.3 0 01-2.3-2.31V166.08a2.3 2.3 0 014.6 0v22.08A2.3 2.3 0 01955.18 190.47z"/><polygon fill="#c0d6f2" points="963.73 281.31 939.74 281.53 939.95 304.62 963.73 281.31"/><path fill="#af2f2f" d="M872.71,253.6A87.81,87.81,0,0,1,879,263c1,1.62,1.89,3.26,2.77,4.93s1.72,3.36,2.45,5.12c-1.19-1.48-2.27-3-3.32-4.61s-2-3.17-3-4.79A89.32,89.32,0,0,1,872.71,253.6Z"/><path fill="#af2f2f" d="M884.26,253.6a86.14,86.14,0,0,1-5.22,10c-1,1.62-2,3.23-3,4.79s-2.12,3.13-3.32,4.61c.73-1.76,1.58-3.45,2.46-5.12s1.81-3.31,2.76-4.93A89.33,89.33,0,0,1,884.26,253.6Z"/></g><g><polygon fill="none" stroke="#59a4ce" stroke-linecap="round" stroke-linejoin="round" stroke-width="4" points="1017.68 649.46 1077.96 839.14 946.19 649.46 891.23 839.14 1017.68 649.46"/><rect width="16.73" height="7.93" x="1069.59" y="836.5" fill="#80cbe8" rx="2.45" transform="rotate(-180 1077.955 840.46)"/><rect width="16.73" height="7.93" x="882.86" y="836.5" fill="#80cbe8" rx="2.45" transform="rotate(-180 891.23 840.46)"/><rect width="124.19" height="9.54" x="920.52" y="696.21" fill="#80cbe8" rx="3" transform="rotate(-180 982.615 700.985)"/><path fill="#c9effb" d="M1113.19,475.25c-.09-1.67-.63-8.69-4.85-12.33-9.3-8-33.81,2.92-48.95,15-3.83,3.06-37.09,30.44-36,68.76.33,11.69,4.71,54.09,2.51,55.8-.6.46-1.23.9-1.23.9-5,3.52-11.54,6.49-42.28,8.37-36.48,2.23-53.75-.35-82.79,6.16-12.23,2.75-24.27,5.82-28.63,15.42-1.81,4-3.1,10.81,0,15.85,6.7,10.85,27.27,2.79,64.74,3.52,7.34.15,2.37.38,71.79,6.17,8.86.74,20.74,1.61,34.79-3.08,3.15-1.06,16-5.34,25.1-14.54,12.69-12.78,8.94-25.64,14.53-60.33,6.53-40.53,10.89-67.68,23.34-84.11C1107,494.51,1113.73,486.05,1113.19,475.25Z"/><path fill="#80cbe8" d="M958.17,646.12c16.67,1.26,30.73,3.67,51.09-.88,10.23-2.29,27.3-6.11,41-18.5,7.33-6.65,13.24-15.38,25.1-63,11.49-46.06,12.37-63.63,29.07-79.27a87.51,87.51,0,0,1,8.83-7.52c-.2,10-6.29,17.65-8,19.85-12.45,16.43-16.81,43.58-23.34,84.11-5.59,34.69-1.84,47.55-14.53,60.33-9.14,9.2-22,13.48-25.1,14.54-14,4.69-25.93,3.82-34.8,3.08-69.41-5.79-64.44-6-71.78-6.17-35.54-.69-55.85,6.49-63.57-2C889.89,645.17,928.72,643.89,958.17,646.12Z"/></g><g data-name="Doctor/Botoom/Sitting"><path fill="#25beef" d="M1051.25,580.05s21.36,43.29-18.47,64.07S968.13,672.4,967,681.06s6.35,20.2,2.89,54.83-9.24,75.62-9.24,75.62-30.59,4.61-35.21,0,1.15-62.6-4-114.71c0,0-9.81-25,3.17-40.56l14-15.4s-101.74,20-87.26,4.09c16.69-18.29,66.51-36.25,108.14-57.13l2.17-7.75Z"/><path fill="#25beef" d="M1051.25,580.05s21.36,43.29-18.47,64.07S968.13,672.4,967,681.06s6.35,20.2,2.89,54.83-9.24,75.62-9.24,75.62-30.59,4.61-35.21,0,1.15-62.6-4-114.71c0,0-9.81-25,3.17-40.56l11-10.39,26.11-65.8Z"/><path fill="#d18165" d="M889.3,844.39c9.23-8.27,31.17-18.66,36.17-32.9,3.84,3.84,25.59,1.3,32.84.33h0S961.83,823,962,831.11s0,10.39,0,10.39l-13.46,1.74v-3.47s-7.89.39-12.12,4.62-16.36,9.81-29.44,9.24S880.06,852.66,889.3,844.39Z"/><path fill="#ffc065" d="M907,853.63c13.08.57,25.2-5,29.43-9.24s12.12-4.62,12.12-4.62v3.47L962,841.5s.19-2.3,0-10.39a65.46,65.46,0,0,0-1.92-12.66c-.92-3.82-1.8-6.62-1.8-6.62-7.24,1-29,3.49-32.83-.34a26.42,26.42,0,0,1-4.53,7.74c-.62.79-1.29,1.56-2,2.31l-1.8,1.8c-.79.75-1.59,1.51-2.44,2.24-8.53,7.43-19.54,13.55-25.43,18.81C880.07,852.66,893.92,853.05,907,853.63Z"/><path fill="#7c2f13" d="M907 853.63c-10.51-.47-21.49-.81-20.64-5.21 32.84 7.88 45.84-5 48.23-8.84s8.19-4.23 8.19-4.23c10.64-.12 16.33-3.5 19.14-6.1.05.64.09 1.26.1 1.86.2 8.09 0 10.39 0 10.39l-13.46 1.74v-3.47s-7.89.39-12.12 4.62S920.08 854.2 907 853.63zM919 821.54c.62.42 1.28.82 1.94 1.19a19.23 19.23 0 002.77 1.35A12.41 12.41 0 00927 825a8.65 8.65 0 00-1.84-3 11 11 0 00-2.62-2.07 12 12 0 00-1.54-.71C920.33 820 919.66 820.79 919 821.54zM914.73 825.58c.45.28.9.55 1.37.8a22.94 22.94 0 002.77 1.35 12 12 0 003.27.88 8.53 8.53 0 00-1.84-3 11.51 11.51 0 00-2.62-2.07c-.16-.09-.33-.17-.51-.25C916.38 824.09 915.58 824.85 914.73 825.58z"/><path fill="#1a87c4" d="M960.63,811.51l-2.35.32h0l-3.63.45h-.07l-3.58.4-1.15.11h0c-1.65.16-3.28.29-4.91.42l-2.09.13-.38,0-2,.1h0l-2.16.06h0c-.71,0-1.41,0-2.1,0h0a38.65,38.65,0,0,1-7.27-.6h0c13.93-12.7,20.1-24.91,23.14-33.48,10.12-28.5,4.3-68.53,2.89-78.21-1.53-10.53-3.24-17.36.34-25.56,4.69-10.72,14-14.46,31.4-22.93,15.85-7.7,30-14.59,40.47-22.77,7.21-5.65,10-15.52,6.16-23.84-2.47-5.38-7.38-9.8-16.71-10.49a96.4,96.4,0,0,1-44.89-15.62h79.63v0l0,0,0,.09,0,.08.08.18,0,.06.14.32a1.17,1.17,0,0,1,.05.11l.13.3.06.15c.06.12.11.25.17.39l0,.11.23.57.06.17c.07.15.13.31.19.48l.09.23.21.55c0,.07.05.13.07.2.1.25.19.52.29.79l.06.17.24.69c0,.1.06.2.1.3s.14.45.22.68l.09.27.3,1a.57.57,0,0,1,0,.14q.13.44.27.9l.09.35c.08.26.15.52.22.79l.09.35c.1.38.2.76.29,1.16h0c.1.39.19.79.28,1.2,0,.12,0,.25.08.37.07.3.13.6.19.91,0,.13,0,.27.08.4l.21,1.12,0,.19c.08.44.15.88.21,1.33l.06.39c.05.33.09.67.14,1,0,.15,0,.3,0,.45,0,.37.09.74.13,1.11l0,.31.12,1.43c0,.13,0,.25,0,.38l.06,1.1c0,.17,0,.33,0,.49,0,.37,0,.75,0,1.12,0,.13,0,.26,0,.4,0,.5,0,1,0,1.5,0,.11,0,.22,0,.33,0,.4,0,.81,0,1.21l0,.5q0,.57-.09,1.14c0,.15,0,.3,0,.45,0,.51-.11,1-.18,1.55l0,.23c-.06.45-.13.89-.21,1.35l-.09.49c-.07.38-.14.76-.22,1.14,0,.16-.07.33-.1.49-.12.52-.24,1-.38,1.56a39,39,0,0,1-3.38,8.58c-.26.49-.54,1-.83,1.47l-.31.53c-.36.57-.74,1.13-1.13,1.7l-.29.42a38.66,38.66,0,0,1-2.66,3.32l-.37.41c-.49.54-1,1.08-1.54,1.61a49.69,49.69,0,0,1-10.41,7.73l-1.82,1q-5.6,2.91-10.8,5.5c-2.31,1.15-4.55,2.26-6.74,3.32L1012,654.5l-6.16,2.94-5.76,2.71c-11.1,5.21-19.71,9.18-25.37,12.69a36.54,36.54,0,0,0-3.69,2.55,18.8,18.8,0,0,0-1.82,1.64,7.34,7.34,0,0,0-2.24,4,17.55,17.55,0,0,0-.07,3.42c.2,2.68.87,5.77,1.59,9.71.1.51.2,1,.29,1.58s.17,1,.25,1.45.17,1,.25,1.51a129.26,129.26,0,0,1,1.4,25.15c0,.93-.07,1.89-.12,2.86-.15,2.86-.38,5.9-.7,9.15-.13,1.3-.27,2.6-.4,3.91l0,.37c-.27,2.62-.56,5.27-.85,7.93l0,.32-.45,4c-.18,1.66-.37,3.32-.56,5h0c-.19,1.61-.38,3.2-.56,4.79l0,.24c-.25,2.14-.51,4.27-.76,6.36-.12,1-.25,2-.37,3l0,.28c-.11.93-.22,1.86-.34,2.77l0,.36q-.36,2.89-.71,5.65l0,.34q-.36,2.82-.7,5.48c-.94,7.28-1.77,13.49-2.36,17.87,0,.27-.08.54-.11.8s-.07.51-.11.76c-.33,2.42-.56,4.1-.67,4.89C960.65,811.33,960.63,811.51,960.63,811.51Z"/><path fill="#25beef" d="M959.55,632.81c-39.83,20.78-64.65,28.29-65.8,36.94s6.35,20.21,2.89,54.84-9.24,75.61-9.24,75.61-30.59,4.62-35.21,0,1.15-62.59-4-114.7c0,0-9.81-25,3.17-40.57l13.93-11.14"/><path fill="#d18165" d="M816.07,833.09c9.23-8.28,31.17-18.67,36.17-32.9,3.84,3.83,25.59,1.3,32.84.33h0s3.52,11.21,3.71,19.29,0,10.39,0,10.39l-13.46,1.73v-3.46s-7.89.38-12.12,4.62-16.36,9.81-29.44,9.23S806.83,841.36,816.07,833.09Z"/><path fill="#ffc065" d="M833.78,842.32c13.08.58,25.2-5,29.43-9.23s12.12-4.62,12.12-4.62v3.46l13.47-1.73s.19-2.31,0-10.39a65.46,65.46,0,0,0-1.92-12.66c-.92-3.82-1.8-6.63-1.8-6.63-7.24,1-29,3.5-32.83-.33a26.55,26.55,0,0,1-4.53,7.74c-.62.79-1.29,1.56-2,2.31l-1.8,1.8c-.79.75-1.59,1.5-2.44,2.24C833,821.7,822,827.83,816.07,833.09,806.84,841.36,820.69,841.75,833.78,842.32Z"/><path fill="#7c2f13" d="M833.77 842.32c-10.51-.46-21.49-.8-20.64-5.2 32.84 7.88 45.84-5 48.23-8.84s8.19-4.24 8.19-4.24c10.64-.11 16.33-3.5 19.14-6.09 0 .63.09 1.26.1 1.86.2 8.08 0 10.39 0 10.39l-13.46 1.73v-3.46s-7.89.38-12.12 4.62S846.85 842.9 833.77 842.32zM845.74 810.24c.62.42 1.28.82 1.94 1.19a18.21 18.21 0 002.77 1.34 12 12 0 003.27.89 8.79 8.79 0 00-1.84-3 11.2 11.2 0 00-2.62-2.06 9.75 9.75 0 00-1.54-.71C847.1 808.72 846.43 809.49 845.74 810.24zM841.5 814.28c.45.27.9.55 1.37.8a22.94 22.94 0 002.77 1.35 12.41 12.41 0 003.27.88 8.35 8.35 0 00-1.84-2.95 11 11 0 00-2.62-2.07c-.16-.09-.33-.17-.51-.25C843.15 812.79 842.35 813.54 841.5 814.28z"/><path fill="#1a87c4" d="M959.55,632.81q-5.59,2.93-10.8,5.51c-2.31,1.15-4.55,2.25-6.74,3.32l-3.22,1.56c-2.12,1-4.17,2-6.16,2.93s-3.91,1.85-5.76,2.71c-11.1,5.21-19.71,9.19-25.37,12.7a36.54,36.54,0,0,0-3.69,2.55,17.58,17.58,0,0,0-1.82,1.64,7.34,7.34,0,0,0-2.24,4,16.9,16.9,0,0,0-.07,3.43c.2,2.68.87,5.77,1.59,9.7.1.52.2,1,.29,1.59s.17.95.25,1.44.17,1,.25,1.52a129.2,129.2,0,0,1,1.4,25.14c0,.94-.07,1.89-.12,2.87-.15,2.86-.38,5.9-.7,9.15-.13,1.29-.27,2.6-.4,3.91l0,.36c-.27,2.63-.56,5.28-.85,7.93l0,.33-.45,4c-.18,1.66-.37,3.31-.56,5h0c-.19,1.6-.38,3.2-.56,4.78l0,.25c-.25,2.14-.51,4.26-.76,6.35-.12,1-.25,2-.37,3l0,.29c-.11.93-.22,1.85-.34,2.77l0,.36c-.24,1.92-.48,3.81-.71,5.65l0,.34c-.24,1.88-.47,3.71-.7,5.47-.94,7.29-1.77,13.5-2.36,17.88,0,.27-.08.54-.11.8s-.07.51-.11.76c-.33,2.41-.56,4.1-.67,4.88-.05.33-.07.5-.07.5-.78.12-1.57.23-2.35.33h0c-1.21.17-2.42.32-3.63.46h-.07l-3.58.39-1.15.12h0c-1.65.16-3.28.29-4.91.41l-2.09.14-.38,0-2,.09h0l-2.16.07h0c-.71,0-1.41,0-2.1,0h0a38.65,38.65,0,0,1-7.27-.6h0c13.93-12.7,20.1-24.91,23.14-33.48,10.12-28.51,4.3-68.53,2.89-78.21-1.53-10.53-3.24-17.37.34-25.57,2.93-6.69,7.66-10.67,15-14.77a100,100,0,0,1,30.19-10.74Z"/><polygon fill="#fff" points="928.83 813.25 933.02 808.96 933.27 809.21 928.83 813.25"/><path fill="#fff" d="M940.42 800a81.69 81.69 0 006.12-9.86l1.26.69a81 81 0 01-6.63 9.73zM951 779.47a85.84 85.84 0 002.89-11.16l2.29.47a84.68 84.68 0 01-3.34 11.34zM955.53 756.85q.56-5.77.67-11.57l3 .1c-.18 3.93-.48 7.85-1 11.76z"/><polygon fill="#fff" points="956.12 733.67 955.43 722.08 958.88 721.83 959.36 733.6 956.12 733.67"/><path fill="#fff" d="M954.23 710.53c-.56-3.84-1-7.68-1.66-11.51l3.73-.57c.58 3.87 1 7.77 1.52 11.65zM951.15 687.16a29.76 29.76 0 01.48-6.22 27.47 27.47 0 011.89-6l3.58 1.6a23.52 23.52 0 00-1.65 5.12 25.56 25.56 0 00-.43 5.41zM961 665a55.88 55.88 0 0110.18-6.55l1.86 3.52A55.64 55.64 0 00963.6 668z"/><polygon fill="#fff" points="981.76 653.24 992.27 648.16 993.98 651.63 983.46 656.77 981.76 653.24"/><polygon fill="#fff" points="1002.71 642.98 1012.94 637.5 1014.76 640.64 1004.45 646.34 1002.71 642.98"/><path fill="#fff" d="M1022.71 631.38l2.32-1.69a23 23 0 002.16-1.72 19.12 19.12 0 003.44-4.11l2.79 1.68a22.21 22.21 0 01-3.93 4.92 24.35 24.35 0 01-2.39 1.95l-2.38 1.8zM1033.44 613.6a17.43 17.43 0 00-3.54-10l2.12-1.7a20.18 20.18 0 014.4 11.59zM1020.91 597.84a24.94 24.94 0 00-2.73-.57c-.93-.14-1.86-.21-2.85-.35l-5.87-.78.3-1.94 5.75.57c.94.11 2 .14 3 .27a25.82 25.82 0 013 .53zM998 593.31a100.59 100.59 0 01-11-4.19l.37-.86a100.34 100.34 0 0011 3.66zM976.63 583.68c-1.71-1-3.39-2.14-5-3.33 1.67 1.09 3.41 2.08 5.17 3z"/></g><g data-name="Doctor/Head/Female"><path d="M1010.24,370.05s22-9.57,30.49,9.35,21.52,79.67,43.72,83.05c0,0-12.24,7.54-24.36-7.29s-20.22-28.63-22.47-35.44a69.39,69.39,0,0,0,13.61,34.73c12.76,17,31.15,48.81,7.61,54.38,0,0,12.23-5.28.06-20.44S986.25,422,1010.78,382.71C1015.58,375,1010.24,370.05,1010.24,370.05Z"/><path fill="#ea9d7d" d="M993.53,367.18c12.4,2.41,20,18.2,18.26,36.53h.09c3.39.66,5.39,5,4.47,9.77s-4.42,8-7.81,7.38a4.74,4.74,0,0,1-1.29-.47C1000.36,434.27,987,442,976,439.85c-13.65-2.66-18.49-19.51-14.46-40.14S979.88,364.51,993.53,367.18Z"/><path fill="#ea9d7d" d="M980.34,450.68c.63-2.22-2-7.61-3.6-10.72,10.86,1.66,23.78-6,30.51-19.56a4.74,4.74,0,0,0,1.29.47s1.05,28.21,7.17,28.56c7.15,6.13,30.51,26.89,25.75,36.53-4,8.07-25.56,3.91-57.72-2.31a16.21,16.21,0,0,1-8.39-4c-6.74-6.43-4.9-18-4-20.61C972.63,455.64,979.44,453.87,980.34,450.68Z"/><path fill="#d18165" d="M1009.45 432.1c-.71-6-.91-11.23-.91-11.23a4.74 4.74 0 01-1.29-.47C1000.52 434 987.6 441.62 976.74 440a46.91 46.91 0 013.13 7.06l.83.19C990.49 449.12 1002.15 443.2 1009.45 432.1zM1012 407.92a4.74 4.74 0 011.8 2.35 5.43 5.43 0 01.23 3.07 5.57 5.57 0 01-1.42 2.73 5.7 5.7 0 01-1.14.95 6.51 6.51 0 01-1.36.59 12.3 12.3 0 01.65-1.26c.18-.42.42-.78.56-1.17a10.54 10.54 0 00.75-2.24A13.74 13.74 0 001012 407.92z"/><path fill="#d18165" d="M1015.71,449.43c-3.73-.22-5.57-10.78-6.45-19l-5.47,2.46-4.69,9.8s9,2,4.69,11.2c-3.83,8.29-14,27.11-28.7,25.5,2.13,1.18,5.07,2.7,8.65,4.26,23.55,10.25,55.68,13.48,60.36,4.23S1025.4,457.65,1015.71,449.43Z"/><path d="M966.36,385.45s6.27-9.75,8.09-7.57,5.31,8.06,17.23,7.43c0,0,8,10.4,9.64,22.61s10.56-4.2,10.56-4.2,11.4-28.4-.91-35.16-24.65-6.91-37,0S966.36,385.45,966.36,385.45Z"/><path fill="#be3e5f" d="M967.65,426.34c10,.46,11.13-7.22,11.13-7.22a26.45,26.45,0,0,1-12.42.85S969.3,423.31,967.65,426.34Z"/><path fill="#d18165" d="M970.45,398.3a19.26,19.26,0,0,1,.12,6.25,10.2,10.2,0,0,1-.92,3.19c-.27.57-.55.92-.8,1.37s-.52.84-.74,1.26a5.45,5.45,0,0,0-.8,2.37,1.12,1.12,0,0,0,.29.81,2.82,2.82,0,0,0,.95.64,24,24,0,0,0,5.83,1,12.48,12.48,0,0,1-6.34.45,3.91,3.91,0,0,1-1.68-.88,3,3,0,0,1-.94-1.92,6.38,6.38,0,0,1,.93-3.44c.26-.48.54-.94.83-1.38s.63-.89.82-1.22a11.86,11.86,0,0,0,1.06-2.61C969.61,402.33,970,400.33,970.45,398.3Z"/><path d="M976.7 394.19a45.4 45.4 0 015.89 1.37 19.72 19.72 0 012.71 1.1c.9.41 1.71 1 2.66 1.52a6.84 6.84 0 00-2-2.52 8.88 8.88 0 00-2.89-1.55 10.3 10.3 0 00-3.2-.51A8.14 8.14 0 00976.7 394.19zM966.47 392.25a9.11 9.11 0 00-2.76-.65c-.18.5-.34 1-.5 1.5h0a19 19 0 012.91.3c1 .14 1.92.46 3 .71A7 7 0 00966.47 392.25zM964.13 405.86a1.53 1.53 0 001.79-1.21l.86-4.4a1.53 1.53 0 10-3-.59l-.85 4.4A1.53 1.53 0 00964.13 405.86zM979.54 406.8a1.54 1.54 0 001.8-1.21l.86-4.4a1.53 1.53 0 00-3-.59l-.86 4.4A1.54 1.54 0 00979.54 406.8zM992 381a62.6 62.6 0 014.43 7.58 75 75 0 013.43 8 63.63 63.63 0 013.75 16.9 49.52 49.52 0 01-8.71 32.64 50.34 50.34 0 006.48-15.67 49.61 49.61 0 00.74-16.83 62.06 62.06 0 00-4.35-16.23 74.31 74.31 0 00-3.66-7.57 61.53 61.53 0 00-4.5-7z"/></g><g data-name="Doctor/Torso"><path fill="#ea9d7d" d="M873.19,562.79l-10.33.41s-2.25-1.78-5.29-4.1c-5.76-4.4-14.38-10.72-16.15-10.62-2.71.17-7.42,2.14,4.3,11.16l-.09.08c-.39.3-2.2,1.49-6.83,1.77-5.33.32-23.28,1.55-26.2,2.64-1.58.59-5.13,5.35,21.49,4.42a1.43,1.43,0,0,1,1.5,1.6c-.09.5-.45.93-1.41,1-2.41.14-23.22.5-22.86,4.25.26,2.74,5.71,2.07,23.95,1.27,0,0,2.9.74.59,2.23-.8.51-21.42,2.44-22.43,4.08s-3.66,4.3,27.27.92c0,0,.55.31-2.15,1.88-2.86,1.68-11.32,3.92-13.48,7.07s4.12.66,20-4.68l22.28-2.83c14.73,2.07,69.85,6.78,83.54-7.44,12.83-13.32,19.73-60.95,19.73-60.95l-31.37-1.06-13.14,35.55a6.9,6.9,0,0,1-5.48,4.43L871.26,563"/><path fill="#d18165" d="M958.76,516.54l-11.17,1.62s2.91,38.29-7.41,46-24.72,14.64-86.4,14.88c-19.94.08-32.62,2-40.67,4.48-.83,1.54-.07,3.43,27.59.4,0,0,.55.31-2.15,1.88-2.86,1.68-11.32,3.92-13.48,7.07s4.12.66,20-4.68l22.28-2.83c14.73,2.07,69.85,6.78,83.54-7.44,12.83-13.32,19.73-60.95,19.73-60.95Z"/><path fill="none" stroke="#2f170b" stroke-miterlimit="10" stroke-width="2" d="M845.4,559.7s4.32,16.17,19.09,11.71"/><path fill="#ff5061" d="M1038.69,668.45h100.88a0,0,0,0,1,0,0V715a7.33,7.33,0,0,1-7.33,7.33H1046a7.33,7.33,0,0,1-7.33-7.33V668.45A0,0,0,0,1,1038.69,668.45Z" transform="rotate(-180 1089.125 695.365)"/><polygon fill="#fc7e85" points="1139.57 722.29 1139.57 711.67 1128.6 722.29 1139.57 722.29"/><polygon fill="#fc7e85" points="1038.69 722.29 1038.69 711.67 1049.66 722.29 1038.69 722.29"/><path fill="#fc7e85" d="M1139.57,675.78v2.67H1038.69v-2.67a7.33,7.33,0,0,1,7.33-7.33h86.21A7.34,7.34,0,0,1,1139.57,675.78Z"/><line x1="872.63" x2="872.63" y1="562.79" y2="584.97" fill="none" stroke="#2f170b" stroke-linecap="round" stroke-linejoin="round" stroke-width="6"/><path fill="#25beef" d="M935.5,512.94l10.3-32.33a39,39,0,0,1,13-19,27.78,27.78,0,0,1,5.07-3.22,1,1,0,0,1,1.43.94l-1.9,58.8H939.31A4,4,0,0,1,935.5,512.94Z"/><path fill="#1a87c4" d="M964.86,471.82l-1.5,46.34H947.59c-.37-11.25.47-23.69,7-37.51,4.49-9.43,7.07-9.9,8.16-9.84A3.29,3.29,0,0,1,964.86,471.82Z"/><path fill="#ea9d7d" d="M1109.32,652.49a23.87,23.87,0,0,1-.73-5.51c-.23-15.57-1.71-75-10.68-102-2.85-8.63-29.06-52.54-29.06-52.54l-37.44,7.92,33,54.78a27.18,27.18,0,0,1,3.19,7.84l20.11,85.64a8.1,8.1,0,0,1-1.49,6.82c-4.23,5.43-12.61,16.46-12.47,18.49.18,2.71,2.18,7.41,11.13-4.38,0,0,1.53,1.58,1.89,6.92s1.12,25.84,2.81,26.18,5.49,5.23,4.23-22.66c0,0,2.47-1.37,2.63,1s1.55,25.29,4.4,22.83,2-5.73,1.12-24c0,0,1.87-1.48,2.23-.6s2.41,22.51,4.22,22.39,4.32,3.64.75-27.26c0,0,1-.52,2.13,2.58s5.51,16.71,6.92,13,.63-4.12-4.81-19.93l-4-17.57Z"/><path fill="#d18165" d="M1031.41,500.35l8.83-1.87c6.6,8.37,14.8,14.46,25.49,30.1,8.32,12.18,13.71,24.58,16.1,29.83,6.56,14.36,5.23,21.68,9.6,57.12,2.63,21.27,3.94,31.91,5.32,37.47,0,0,9.89,39.86,5.06,49.73a2.78,2.78,0,0,1-1,1.12c-2.85,2.46-4.23-20.43-4.4-22.83s-2.63-1-2.63-1c1.26,27.89-2.55,23-4.23,22.66s-2.45-20.76-2.81-26.15h0v0c-.36-5.34-1.89-6.92-1.89-6.92-8.95,11.79-10.95,7.09-11.13,4.38-.14-2,8.24-13.06,12.47-18.49a8.1,8.1,0,0,0,1.49-6.82L1067.57,563a27.18,27.18,0,0,0-3.19-7.84Z"/><path fill="#25beef" d="M965,586.31h77.5a8.43,8.43,0,0,0,8.34-9.69l-18.29-120.71-16.68-6.32c-6.73,14.27-29.63,17.07-36.24,2.74l-14.31,5.44a10.9,10.9,0,0,0-8.3,11.16l.15,4.5q1.79,54.38,3.56,108.76C960.73,582.48,960.81,583.94,965,586.31Z"/><path fill="#25beef" d="M1083.13,516.36a4,4,0,0,0,.95-5.67l-28.2-39.16s-10-12.88-23.34-15.62l-7.62,39.74,26.95,41a1.35,1.35,0,0,0,1.91.37Z"/><path fill="#1a87c4" d="M1051.87,536.6l-26.77-40.67.06-.39a4.33,4.33,0,0,1,6.9-2.8c5.1,3.88,11.63,10.57,17.61,16.71,6.25,6.4,12.94,13.27,16.06,19.13l-12,8.39A1.35,1.35,0,0,1,1051.87,536.6Z"/><path fill="#1a87c4" d="M960.72,582.19c5.88-2.08,21.16-2.15,44.31-9.44,21.73-6.85,26.11-12.41,28.08-16.38,4.65-9.36,1.61-21.23.36-26.1-2.24-8.77-2.88-12.11-7.38-23.22-1.51-3.73-2-12.76,0-13.5,2.33-.86,8.92,9.19,15.66,23.16l9.08,59.91a8.43,8.43,0,0,1-8.34,9.69H965a4.27,4.27,0,0,1-4.27-4.12Z"/><path fill="#fc7e85" d="M1072.12,668.45h12.06a7.78,7.78,0,0,1,.81,3.77c0,2.43-3.24,4.86-3.24,4.86s-6.57,1.26-8.1.54S1072.12,668.45,1072.12,668.45Z"/><rect width="23.8" height="9.08" x="1001.3" y="483.7" fill="#e3eaf3" rx="2"/></g><g data-name="Patient/Bottom"><path fill="#7c2f13" d="M477.25,836.5c-10.88-8.35-38.6-17-45.54-32.51-3.74,4.7-24.72,3.37-32.68,3h0s-2.61,13-1.95,22.05,1.11,11.67,1.11,11.67l14.77.56-.37-3.89s8.58-.38,13.62,3.94,18.76,9.34,32.86,7.34S488.14,844.84,477.25,836.5Z"/><path fill="#25beef" d="M459.06,848.69c-14.1,2-27.83-3-32.86-7.34s-13.62-3.94-13.62-3.94l.37,3.89-14.77-.56s-.46-2.57-1.11-11.66a76.76,76.76,0,0,1,.73-14.43c.58-4.38,1.24-7.62,1.24-7.62,7.95.33,28.24,1.55,32.66-3,2.13,2.57,6.17,5,8.58,7.51.77.82,1.58,1.61,2.4,2.39.71.62,1.42,1.23,2.14,1.83.93.77,1.88,1.53,2.88,2.27,10,7.46,22.61,13.21,29.55,18.51C488.13,844.84,473.17,846.7,459.06,848.69Z"/><path fill="#e3eaf3" d="M399 807h0s-2.61 13-1.95 22.05c.15 2.13.29 3.89.42 5.36 5.2.14 11.29-.27 8.89-3.22-4-4.89-4.07-24.07-4.07-24.07zM479.48 838.49a16.53 16.53 0 00-2.23-2c-4.58-3.52-11.63-7.22-18.79-11.48a29.1 29.1 0 00-14.53 9.49c-3.3 4.14-3.57 10.9-4.46 12 3.65 3.83 40.74-.7 41.45-4.51 0 0 0-.09 0-.14A5.44 5.44 0 00479.48 838.49z"/><path fill="#7c2f13" d="M459.07 848.69c11.33-1.6 23.19-3.12 21.8-8-34.73 12.23-50.18-.89-53.18-5s-9.33-3.91-9.33-3.91c-11.53 1-18.05-2.25-21.37-4.88 0 .72 0 1.43.09 2.1.65 9.1 1.11 11.67 1.11 11.67l14.77.56-.37-3.89s8.58-.38 13.62 3.94S445 850.69 459.07 848.69zM442.68 813.89c-.63.53-1.3 1.05-2 1.53a18.72 18.72 0 01-2.86 1.8 13.4 13.4 0 01-3.45 1.33 10 10 0 011.68-3.51 12.1 12.1 0 012.61-2.59 11.71 11.71 0 011.59-1C441.05 812.32 441.86 813.11 442.68 813.89zM447.7 818c-.46.35-.91.71-1.39 1a24.76 24.76 0 01-2.86 1.8 12.71 12.71 0 01-3.45 1.33 9.7 9.7 0 011.68-3.51 12.1 12.1 0 012.61-2.59c.17-.12.35-.23.53-.34C445.75 816.49 446.7 817.25 447.7 818z"/><path fill="#7c2f13" d="M415.09,836.39c-10.88-8.34-37.2-14.92-44.14-30.39-3.75,4.7-24.9.34-32.86,0h0s-3.83,13.87-3.17,23S336,840.64,336,840.64l14.77.55-.37-3.88s8.58-.38,13.62,3.93,18.75,9.34,32.86,7.34S426,844.73,415.09,836.39Z"/><path fill="#25beef" d="M396.9,848.58c-14.1,2-27.83-3-32.86-7.34s-13.62-3.93-13.62-3.93l.37,3.89L336,840.64s-.46-2.58-1.11-11.67c-.33-4.55.67-10,1.24-14.31a57.88,57.88,0,0,1,1.94-8.66c8,.34,27.45,1.41,32.85,0a24.38,24.38,0,0,1,7.18,5.39c.77.82,1.58,1.62,2.4,2.39s1.42,1.23,2.14,1.83c.93.77,1.88,1.53,2.88,2.28,10,7.45,22.61,13.2,29.55,18.5C426,844.73,411,846.59,396.9,848.58Z"/><path fill="#e3eaf3" d="M338.09 806h0s-3.83 13.87-3.17 23c.15 2.13.29 3.89.42 5.35 5.2.14 11.29-.27 8.89-3.22-4-4.89-4.07-24.07-4.07-24.07C338.9 807 339 806 338.09 806zM417.32 838.39a16.47 16.47 0 00-2.23-2c-4.58-3.51-11.63-7.21-18.79-11.48a29.14 29.14 0 00-14.53 9.5c-3.3 4.13-3.57 10.89-4.46 12 3.65 3.83 40.74-.7 41.45-4.51 0 0 0-.09 0-.13A5.41 5.41 0 00417.32 838.39z"/><path fill="#7c2f13" d="M396.91 848.58c11.33-1.6 23.19-3.12 21.8-8-34.73 12.24-50.18-.88-53.18-5s-9.33-3.91-9.33-3.91c-11.53 1-18.05-2.25-21.37-4.87 0 .71 0 1.42.09 2.1.65 9.09 1.11 11.67 1.11 11.67l14.77.55-.37-3.88s8.58-.38 13.62 3.93S382.8 850.58 396.91 848.58zM380.52 813.78c-.63.54-1.3 1.05-2 1.54a19.48 19.48 0 01-2.86 1.79 12.71 12.71 0 01-3.45 1.33 10 10 0 011.68-3.5 11.87 11.87 0 012.61-2.59 12.91 12.91 0 011.59-1C378.89 812.21 379.7 813 380.52 813.78zM385.54 817.89c-.46.35-.91.7-1.39 1a26.14 26.14 0 01-2.86 1.79 12.71 12.71 0 01-3.45 1.33 9.65 9.65 0 011.68-3.5 11.87 11.87 0 012.61-2.59 6.06 6.06 0 01.53-.35C383.59 816.38 384.54 817.14 385.54 817.89z"/><path fill="#ef3e3b" d="M331.39,584.46a90.78,90.78,0,0,1-5.86-43,89.3,89.3,0,0,1,7.33-26.84s69.81,10.35,89.34.59c0,0,15.61,138.53,16.1,150.73s-6.59,139.13-6.59,139.13-19,7.65-32.63,2.44c0,0-10.74-97.31-9.11-122l-.89-16.82c-.54,12.2-18.24,138.08-18.24,138.08s-19.53,6-32.71-.3c0,0-2.54-97.86,1.15-122.37l.37-47Z"/><path fill="#c82833" d="M387.53,623.51c2.61-30,8-58.76,9.76-58.57,1.35.14,0,15.06-.49,49.3-.36,27.93.2,46.68,1,73.22,1.53,51.81,3.61,60.69,5.83,67.86a139.12,139.12,0,0,0,28.1,49.79c-6.4,2.88-16.78,6.2-28.37,3.64a40.05,40.05,0,0,1-4.26-1.2s-10.74-97.31-9.11-122l-3.47-45.36C386.64,635.6,386.91,630.59,387.53,623.51Z"/><path fill="#c82833" d="M325.53,541.5a89.3,89.3,0,0,1,7.33-26.84s69.81,10.35,89.33.59h0c.75,5.69-53.66,6.82-72.13,40.9-4.58,8.46-3.47,104-4.58,130.51-2.17,51.78-.73,60.79,1,68.09a139,139,0,0,0,24.43,51.6v.09c-1.35.49-2.86,1-4.51,1.44-5.25,1.11-14.28,2.4-22.45.56-.51-.13-1-.26-1.54-.41a41.26,41.26,0,0,1-3.89-1.39l-.51-.27c0-.1.12-3-.05-8.14-.52-24.08-1.7-94,1.34-114.13l.37-47-1-6.7v0l0-.09-7.18-45.8h0A90.78,90.78,0,0,1,325.53,541.5Z"/><path fill="#7c2f13" d="M381.08,529.56c-15.52,0-36-1.26-51.42-6.78l.67-1.89c25.61,9.18,65.65,6.4,72.26,5.86l-.24-7.63,2-.06.3,9.51-.93.09C403.51,528.68,394,529.56,381.08,529.56Z"/><path fill="#7c2f13" d="M403.71 528.66l-.18-2a130.83 130.83 0 0019.41-3.36l.53 1.92A133.1 133.1 0 01403.71 528.66zM398.13 565.48l-1.68-1.09c7-10.74 4.3-36.2 4.28-36.45l2-.22C402.83 528.79 405.51 554.14 398.13 565.48zM337.06 565.91l-.49-1.94c12.42-3.16 27.71-23.69 27.86-23.9l1.61 1.19C365.4 542.13 350.17 562.58 337.06 565.91zM398.66 526c3.86 0 3.87-6 0-6s-3.86 6 0 6z"/><path fill="#7c2f13" d="M357.34,807.06l-2-.09c0-.85,3.87-85.44,6-127.25,2.84-55.26-9.47-124.21-9.59-124.9l2-.35c.13.69,12.47,69.86,9.62,125.36C361.21,721.62,357.38,806.21,357.34,807.06Z"/></g><g data-name="Patient/Head/Male"><path fill="#000001" d="M368.24,329s2.5,30.3,14.49,43.44S383,328,383,328Z"/><path fill="#ea9d7d" d="M406.73,387.12c-.62-2.22,2-7.61,3.6-10.72-10.85,1.66-23.77-6-30.5-19.56a4.58,4.58,0,0,1-1.3.46s-1,28.22-7.16,28.56c-7.15,6.14-30.51,26.9-25.76,36.53,4,8.08,25.56,3.91,57.72-2.3a16.18,16.18,0,0,0,8.39-4c6.75-6.44,4.9-18,3.95-20.61C414.44,392.07,407.64,390.31,406.73,387.12Z"/><path fill="#d18165" d="M383.28,390.33c-4.26-9.24,4.69-11.2,4.69-11.2l-.06-.13c5.92,4,12.53,5.73,18.47,4.57.28-.05.55-.12.82-.19a48.41,48.41,0,0,1,3.13-7.06c-10.85,1.67-23.15-6.71-29.88-20.28a2,2,0,0,1-1.92,1.19s-.19,5.25-.91,11.24h0c-.94,7.92-2.78,17.19-6.26,17.38-9.7,8.23-33.09,29.17-28.4,38.45s36.81,6,60.36-4.22c3.59-1.56,6.52-3.08,8.65-4.26C397.27,417.44,387.11,398.62,383.28,390.33Z"/><path fill="#ea9d7d" d="M393.54,303.61c-12.4,2.42-20,18.21-18.25,36.54h-.1c-3.39.66-5.39,5-4.46,9.77s4.42,8,7.8,7.37a2.74,2.74,0,0,0,2-1c6.88,13.87,19.52,22.11,30.53,20,13.65-2.66,18.48-19.51,14.46-40.14S407.19,301,393.54,303.61Z"/><path fill="#d18165" d="M375.07,344.36a13.74,13.74,0,0,0-.07,5,10,10,0,0,0,.76,2.24c.14.39.38.75.56,1.17s.45.78.64,1.26a6.22,6.22,0,0,1-1.35-.59,6.45,6.45,0,0,1-1.15-.95,5.62,5.62,0,0,1-1.19-5.8A4.85,4.85,0,0,1,375.07,344.36Z"/><path fill="#be3e5f" d="M406.79,360.8a82.31,82.31,0,0,1,10.67,4s.82-5.32-3.39-6.95S406.79,360.8,406.79,360.8Z"/><path fill="#d18165" d="M416.61,334.86c.45,2,.84,4,1.39,5.93a11.78,11.78,0,0,0,1.06,2.6c.19.34.54.8.81,1.23s.57.89.84,1.37a6.4,6.4,0,0,1,.92,3.44,3,3,0,0,1-.93,1.92,3.78,3.78,0,0,1-1.69.88,12.39,12.39,0,0,1-6.34-.45,23.62,23.62,0,0,0,5.84-1,2.82,2.82,0,0,0,.95-.64,1.12,1.12,0,0,0,.28-.81,5.42,5.42,0,0,0-.8-2.36c-.22-.42-.47-.84-.73-1.26s-.53-.81-.81-1.38a10.42,10.42,0,0,1-.92-3.18A19.6,19.6,0,0,1,416.61,334.86Z"/><path fill="#000001" d="M399.53 331.74a45.06 45.06 0 006 .64 19.05 19.05 0 002.92-.15c1-.1 1.94-.36 3-.56a6.94 6.94 0 01-2.74 1.72 9.08 9.08 0 01-3.23.52 10.46 10.46 0 01-3.19-.58A8.16 8.16 0 01399.53 331.74zM424.43 332.06c-.27.09-.55.16-.83.23a10.88 10.88 0 01-1.59.23 10.1 10.1 0 01-1.65 0 8.21 8.21 0 01-3.1-.86c1.48-.15 2.88-.28 4.23-.51.6-.09 1.18-.21 1.76-.35.26-.05.51-.11.76-.18C424.16 331.09 424.3 331.57 424.43 332.06zM422.93 342.42a1.53 1.53 0 01-1.8-1.21l-.86-4.4a1.53 1.53 0 013-.58l.86 4.4A1.53 1.53 0 01422.93 342.42zM407.51 343.36a1.51 1.51 0 01-1.79-1.21l-.86-4.39a1.53 1.53 0 113-.59l.85 4.4A1.52 1.52 0 01407.51 343.36z"/><path fill="#69baef" d="M396.46,346.85s24.68-1.56,30.37,0c0,0,2.09,25.49-14.23,29.12s-25.83-9-25.83-9Z"/><path fill="#69baef" d="M378.45 357.38a26.24 26.24 0 013.61 2.59 42.91 42.91 0 013.21 3 41.06 41.06 0 012.89 3.28 24.89 24.89 0 012.49 3.67 24.81 24.81 0 01-3.61-2.58 43.66 43.66 0 01-6.1-6.26A24.89 24.89 0 01378.45 357.38zM379 341a49.35 49.35 0 016.1 1.49c2 .61 4 1.27 5.9 2s3.85 1.54 5.74 2.42a49.11 49.11 0 015.54 3 49.35 49.35 0 01-6.1-1.49c-2-.61-4-1.27-5.9-2s-3.85-1.55-5.74-2.42A50 50 0 01379 341z"/><path fill="#fff" d="M410.25,349.85a13.2,13.2,0,0,1,3.63-1.5,17.33,17.33,0,0,1,3.87-.59,14.19,14.19,0,0,1,3.94.35,8.27,8.27,0,0,1,3.58,1.74c-1.33-.13-2.55-.17-3.77-.19s-2.45.07-3.67.1C415.36,349.83,412.9,350,410.25,349.85Z"/><path fill="#396e8e" d="M412.6,376a14.58,14.58,0,0,0,7.26-3.93c-4.09-1.12-10.43-1.54-15.29-7.07a19.26,19.26,0,0,1-4.68-10.08A18.57,18.57,0,0,1,401,346.6c-2.71.14-4.49.25-4.49.25l-9.69,20.09S396.29,379.61,412.6,376Z"/><path fill="#000001" d="M422.42,325.62s-8-9.3-34.05-4.47c0,0,4.1,8.6.37,10.56s-4.62,2.49-3,7.64,4.6,10.45.28,8.83-11.58-13.84-13.87-4.5c-2.22,9.05,3,12,2.5,13.32a.5.5,0,0,1-.32.27c-1.67.51-8.26-9.84-9.83-19.61-2.12-13.2,4.28-29.31,16.43-35.74a29.7,29.7,0,0,1,10.8-3.12c21.46-2.91,45.65,9.56,44.88,17.76C436.36,319.2,433.41,322.47,422.42,325.62Z"/></g><g data-name="Patient/Torso"><path fill="#ea9d7d" d="M446.94,449.86l13.14,35.54a6.89,6.89,0,0,0,5.48,4.44L514.89,497a13.06,13.06,0,0,0,10.41-3c5.46-4.73,14.23-12.08,16.07-12.08,2.71,0,7.54,1.69-3.62,11.41,0,0,1.67,1.42,7,1.42s25.86-.61,26.31,1,5.58,5.13-22.32,5.73c0,0-1.21,2.57,1.2,2.57s25.35-.15,23.08,2.86-5.58,2.42-23.83,2.72c0,0-1.36,2-.45,2.26s22.62.91,22.62,2.72,3.93,4.07-27.15,2.56c0,0-.45,1.06,2.72,2s17,4.38,13.42,6-4.07.9-20.21-3.47l-14.07-2.27a24.14,24.14,0,0,0-7.25-.08c-14.73,2.07-69.85,6.78-83.54-7.45-12.83-13.32-19.73-60.95-19.73-60.95Z"/><path fill="#d18165" d="M571.38,514.57c0-1.81-21.72-2.42-22.62-2.72s.45-2.26.45-2.26c13.93-.23,19.16.06,21.86-1.12-6.63-2.05-19.08.37-40.67,2.63-39.22,4.12-50.68,1.62-55.2.48-12.44-3.13-24.29-6.48-31.68-16.8-9-12.56-5.23-27.2-4.91-44.64l-23,.77s6.9,47.63,19.73,60.95c13.68,14.21,68.7,9.53,83.49,7.46a24.47,24.47,0,0,1,7.3.07l14.07,2.27c16.14,4.37,16.59,5.12,20.21,3.47s-10.25-5.13-13.42-6-2.72-2-2.72-2C575.31,518.64,571.38,516.38,571.38,514.57Z"/><path fill="none" stroke="#2f170b" stroke-miterlimit="10" stroke-width="2" d="M537.75,493.24s-.68,16.73-16.07,15.59"/><line x1="513.52" x2="513.52" y1="496.76" y2="518.95" fill="none" stroke="#2f170b" stroke-linecap="round" stroke-linejoin="round" stroke-width="6"/><path fill="#25beef" d="M466.58,485.68a7.48,7.48,0,0,1-4.81-4.85l-21.42-66.25a39.07,39.07,0,0,0-13-19,28.89,28.89,0,0,0-5.07-3.22,1,1,0,0,0-1.43.94l1.91,58.81,1.57,42.24a29.32,29.32,0,0,0,29.29,28.22h56.4l-1.44-28.32C509.75,494.28,478,489.33,466.58,485.68Z"/><path fill="#1a87c4" d="M509.56,512.83c-43.72,4.76-59.31-4.23-65.32-13.63-6.84-10.69-6.58-30.18-6.3-51.48,0,0,.24-18.06-6.42-33.1-1.2-2.69-4.48-10-8.16-9.84a3.31,3.31,0,0,0-2.07,1l1.51,46.34,1.57,42.24a29.32,29.32,0,0,0,29.29,28.22h56.4Z"/><path fill="#25beef" d="M421.16,520.29H332.39a2.69,2.69,0,0,1-2.65-3.19l23.88-127.21,18.84-4.18c6.73,14.28,27.46,14.92,34.07.6l14.31,5.44a10.88,10.88,0,0,1,8.3,11.16l-.15,4.5q-1.78,54.38-3.56,108.76C425.42,516.46,425.34,517.92,421.16,520.29Z"/><path fill="#ea9d7d" d="M276.83,586.47a23.87,23.87,0,0,0,.73-5.51c.23-15.57,1.71-75,10.68-102,2.85-8.62,29.06-52.53,29.06-52.53l37.44,7.91-33,54.79a27.35,27.35,0,0,0-3.19,7.84l-20.11,85.64a8.1,8.1,0,0,0,1.49,6.82c4.23,5.43,12.61,16.46,12.47,18.49-.18,2.7-2.18,7.41-11.13-4.38,0,0-1.53,1.58-1.89,6.92s-1.12,25.84-2.81,26.18-5.49,5.22-4.22-22.66c0,0-2.48-1.37-2.64,1s-1.54,25.3-4.4,22.84-2-5.73-1.12-24c0,0-1.87-1.49-2.23-.6s-2.41,22.51-4.22,22.39-4.32,3.64-.74-27.26c0,0-1-.52-2.14,2.58s-5.5,16.71-6.92,13-.63-4.12,4.81-19.94l4.05-17.56Z"/><path fill="#d18165" d="M354.74,434.32l-8.83-1.86c-6.6,8.37-14.8,14.45-25.49,30.09-8.32,12.19-13.71,24.59-16.1,29.83-6.56,14.37-5.23,21.69-9.6,57.12-2.63,21.28-3.94,31.92-5.32,37.48,0,0-9.89,39.86-5.06,49.73a2.78,2.78,0,0,0,1,1.12c2.86,2.46,4.24-20.43,4.4-22.84s2.64-1,2.64-1c-1.27,27.88,2.54,23,4.22,22.66s2.45-20.76,2.81-26.15h0v0c.36-5.34,1.89-6.92,1.89-6.92,8.95,11.79,10.95,7.08,11.13,4.38.14-2-8.24-13.06-12.47-18.49a8.1,8.1,0,0,1-1.49-6.82L318.58,497a27.35,27.35,0,0,1,3.19-7.84Z"/><path fill="#25beef" d="M277.68,580.2a2.45,2.45,0,0,1-2.46-2.3c-.76-12,1-67.52,7.79-95.26,5-20.28,40.77-72.79,40.77-72.79s16.46-17.22,29.84-20l7.62,39.74-38.5,63.61c-.37.56-15.72,70.08-19.39,84.4A3.41,3.41,0,0,1,300,580.2Z"/><path fill="#1a87c4" d="M334.28,470.58l26.77-40.68-.06-.38a4.33,4.33,0,0,0-6.9-2.8c-5.1,3.88-11.63,10.57-17.61,16.7-6.25,6.4-12.94,13.28-16.06,19.13l12,8.4A1.35,1.35,0,0,0,334.28,470.58Z"/><path fill="#1a87c4" d="M425.43,516.17c-5.88-2.08-21.16-2.15-44.31-9.45-21.73-6.84-26.11-12.4-28.08-16.38-4.65-9.35-1.61-21.22-.36-26.1,2.24-8.76,2.88-12.1,7.38-23.22,1.51-3.73,2-12.76,0-13.5-2.33-.85-11.5,9.65-18.24,23.62l-12,65.88a2.69,2.69,0,0,0,2.63,3.27h88.67a4.26,4.26,0,0,0,4.27-4.12Z"/><path fill="#1a87c4" d="M300,580.2a3.41,3.41,0,0,0,3.31-2.56c3.67-14.32,19-83.84,19.39-84.4l25-41.38,2.6-12.62-30,23.31s-12.08,14.86-15.32,34.21-14.39,83.37-14.4,83.44Z"/></g><g><rect width="525.91" height="293.08" x="485.34" y="560.58" fill="#cc7829"/><rect width="117.6" height="293.08" x="893.64" y="560.58" fill="#a04833"/><rect width="593.01" height="28.17" x="451.79" y="532.41" fill="#895237"/><rect width="593.01" height="28.17" x="451.79" y="532.41" fill="#a04833"/><rect width="184.15" height="28.17" x="860.64" y="532.41" fill="#843a2c"/><rect width="236" height="71" x="568.64" y="631.9" fill="#e3eaf3"/></g><g><rect width="190.42" height="123.25" x="700.04" y="379.15" fill="#9d9f9f" rx="4.1"/><rect width="20.56" height="123.25" x="869.89" y="379.15" fill="#454851" rx="1.35"/><path fill="#e3eaf3" d="M780.21,473.49h30.08a2.73,2.73,0,0,1,2.73,2.73V519a0,0,0,0,1,0,0H777.48a0,0,0,0,1,0,0V476.23A2.73,2.73,0,0,1,780.21,473.49Z"/><path fill="#abbcca" d="M803.42,473.49h8.07A1.53,1.53,0,0,1,813,475v44a0,0,0,0,1,0,0H801.89a0,0,0,0,1,0,0V475A1.53,1.53,0,0,1,803.42,473.49Z"/><path fill="#9d9f9f" d="M752.39,519H838.1a4.1,4.1,0,0,1,4.1,4.1v9.27a0,0,0,0,1,0,0H748.29a0,0,0,0,1,0,0v-9.27A4.1,4.1,0,0,1,752.39,519Z"/><path fill="#454851" d="M830.43,519h10.22a1.54,1.54,0,0,1,1.54,1.54V532.4a0,0,0,0,1,0,0H828.89a0,0,0,0,1,0,0V520.58A1.54,1.54,0,0,1,830.43,519Z"/><rect width="30" height="8.85" x="780.24" y="436.35" fill="#e3eaf3" rx="4.43"/></g></g></svg>