<svg xmlns="http://www.w3.org/2000/svg" viewBox="0 0 1200 900"><path fill="#fff3f7" d="M280.86,725.86C256.4,707.05,148.53,619.5,137.39,492.8,121.76,315,309.19,204,360.61,173.56,478.48,103.73,761.83-1.57,941.48,155.74c143.88,126,132.57,357.74,43.61,490.32C838.5,864.54,474.88,875,280.86,725.86Z"/><rect width="64.89" height="28.93" x="916.19" y="456.25" fill="none" stroke="#fc7e85" stroke-linecap="round" stroke-linejoin="round" stroke-width="2" rx="2"/><rect width="64.89" height="28.93" x="916.19" y="514" fill="none" stroke="#fc7e85" stroke-linecap="round" stroke-linejoin="round" stroke-width="2" rx="2"/><rect width="64.89" height="28.93" x="948.63" y="485.18" fill="none" stroke="#fc7e85" stroke-linecap="round" stroke-linejoin="round" stroke-width="2" rx="2"/><rect width="64.89" height="28.93" x="883.74" y="485.18" fill="none" stroke="#fc7e85" stroke-linecap="round" stroke-linejoin="round" stroke-width="2" rx="2"/><rect width="64.89" height="28.93" x="204.41" y="599.24" fill="none" stroke="#fc7e85" stroke-linecap="round" stroke-linejoin="round" stroke-width="2" rx="2"/><rect width="64.89" height="28.93" x="236.85" y="656.99" fill="none" stroke="#fc7e85" stroke-linecap="round" stroke-linejoin="round" stroke-width="2" rx="2"/><rect width="64.89" height="28.93" x="250.33" y="628.17" fill="none" stroke="#fc7e85" stroke-linecap="round" stroke-linejoin="round" stroke-width="2" rx="2"/><rect width="64.89" height="28.93" x="185.45" y="628.17" fill="none" stroke="#fc7e85" stroke-linecap="round" stroke-linejoin="round" stroke-width="2" rx="2"/><rect width="64.89" height="28.93" x="581.8" y="213.8" fill="none" stroke="#fc7e85" stroke-linecap="round" stroke-linejoin="round" stroke-width="2" rx="2"/><rect width="64.89" height="28.93" x="603.72" y="271.66" fill="none" stroke="#fc7e85" stroke-linecap="round" stroke-linejoin="round" stroke-width="2" rx="2"/><rect width="64.89" height="28.93" x="627.73" y="242.73" fill="none" stroke="#fc7e85" stroke-linecap="round" stroke-linejoin="round" stroke-width="2" rx="2"/><rect width="64.89" height="28.93" x="562.84" y="242.73" fill="none" stroke="#fc7e85" stroke-linecap="round" stroke-linejoin="round" stroke-width="2" rx="2"/><g><path fill="#7bce34" d="M223,666.43c-3.89-17.45-9.86-33.86-22.3-32.44S178.36,652.44,178,671.55c-.36,17.88,13.74,31,26.19,29.61S227.94,688.4,223,666.43Z"/><path fill="#3c8f2d" d="M210.84,677.2c-12.44,1.41-26.54-11.73-26.18-29.61,0-.41,0-.82,0-1.22A52.62,52.62,0,0,0,178,671.55c-.36,17.88,13.74,31,26.19,29.61,11.52-1.31,22.09-11.15,19.68-30.06A22.06,22.06,0,0,1,210.84,677.2Z"/><path fill="#7bce34" d="M256.86,717.39c-1-17.85-11.05-23-23.49-21.59S211,714.26,210.61,733.37c-.35,17.87,6.25,24.8,18.69,23.39S258.19,741.46,256.86,717.39Z"/><path fill="#3c8f2d" d="M248.94,740.67c-12.44,1.42-19-5.51-18.69-23.39a54.31,54.31,0,0,1,4.86-21.63l-1.74.15c-12.44,1.42-22.38,18.46-22.76,37.57-.35,17.87,6.25,24.8,18.69,23.39,7.77-.89,17.09-6.63,22.68-16.67A21.35,21.35,0,0,1,248.94,740.67Z"/><path fill="#7bce34" d="M180.57,696.93c-10-8-21.38-8.91-26.39-3.69s-1.49,14.7,7.31,25.18c8.22,9.8,18.43,15.12,25.79,9.94C193.19,724.2,193.12,707.06,180.57,696.93Z"/><path fill="#3c8f2d" d="M183.17,699.32c.14,4.91-1.29,9-3.8,10.78-7.35,5.17-17.56-.15-25.79-10-.56-.67-1.11-1.35-1.63-2-.58,5.33,3,12.53,9.54,20.28,8.22,9.8,18.43,15.12,25.79,9.94C192.75,724.51,193.09,709.56,183.17,699.32Z"/><path fill="#2e6821" d="M166.36 699.65a47.92 47.92 0 017.61 5.72 5.58 5.58 0 01.75.92c.23.32.48.62.73.93.48.62 1 1.22 1.46 1.87.91 1.29 1.89 2.53 2.74 3.86a86.39 86.39 0 018.81 16.72 84.06 84.06 0 015 18.2l.39 2.34c.06.39.15.78.19 1.17l.1 1.18c.12 1.57.28 3.14.39 4.71A39.83 39.83 0 01194 762c-.24 1.56-.52 3.12-.81 4.66-.29-1.57-.56-3.12-.8-4.65a43.65 43.65 0 00-.8-4.57c-.15-1.52-.25-3-.38-4.56l-.1-1.14c0-.38-.12-.75-.18-1.13l-.38-2.26a80.79 80.79 0 00-4.88-17.58 83.37 83.37 0 00-8.51-16.16c-.82-1.29-1.77-2.48-2.65-3.73s-1.89-2.39-2.85-3.57C170 704.72 168.27 702.17 166.36 699.65zM201.62 640c.86 5.23 1.51 10.47 2.15 15.71l.5 15.78q.47 15.78.64 31.57c.09 10.53.08 21.06-.21 31.61-.15 5.27-.38 10.54-.79 15.83-.43 2.62-.91 5.24-1.51 7.83a35.81 35.81 0 01-2.49 7.58l.4-1.93.22-2c.13-1.3.22-2.6.27-3.91.1-2.61.15-5.23.12-7.85.4-5.2.63-10.44.78-15.68.29-10.48.3-21 .21-31.49s-.33-21-.63-31.52c-.16-5.25-.31-10.5-.53-15.75C201 650.54 201.24 645.27 201.62 640zM210.58 764.69c1.3-2.47 2.37-5 3.44-7.5 1.47-2.26 2.82-4.61 4.18-7 2.7-4.72 5.25-9.53 7.76-14.36s4.93-9.72 7.32-14.63l3.54-7.37c1.58-2.27 3.14-4.55 4.85-6.76-.62 2.72-1.38 5.38-2.14 8l-3.56 7.4q-3.58 7.38-7.34 14.68c-2.53 4.86-5.09 9.71-7.82 14.48l-2.08 3.56c-.73 1.17-1.4 2.36-2.15 3.53A40.69 40.69 0 01210.58 764.69z"/><path fill="#abbcca" d="M229.33,825.92H183.48a11.94,11.94,0,0,1-11.81-10.17l-8.08-53.81c-.56-3.74,26.87-.78,43.66-1,15.83-.15,41.69-1.63,41.41.24l-7.52,54.52A11.94,11.94,0,0,1,229.33,825.92Z"/><path fill="#91a6b5" d="M206.12,761c-16.79.16-43.09-2.81-42.53.93l8.08,53.81a11.94,11.94,0,0,0,11.81,10.17h18.14a28.88,28.88,0,0,1-7.47-19.17c0-1.47.18-10.91,7-18.44,4.09-4.5,10.74-6.81,24-11.41,6.38-2.21,11.49-3.33,17-8a39.44,39.44,0,0,0,6.27-6.32l.19-1.34C248.94,759.36,221.94,760.85,206.12,761Z"/></g><g><rect width="5" height="335.69" x="448.07" y="105.09" fill="#89dbf6"/><rect width="5" height="335.69" x="301.09" y="105.09" fill="#89dbf6"/><rect width="435.47" height="5" x="159.34" y="344.12" fill="#89dbf6"/><rect width="435.47" height="5" x="159.34" y="197.13" fill="#89dbf6"/><path fill="#87dbf6" d="M607,91.7H147.18a5.74,5.74,0,0,0-5.74,5.74V448.82a5.74,5.74,0,0,0,5.74,5.74H607a5.74,5.74,0,0,0,5.74-5.74V97.44A5.74,5.74,0,0,0,607,91.7ZM594.81,435.47a5.31,5.31,0,0,1-5.31,5.31H164.64a5.3,5.3,0,0,1-5.3-5.31V110.78a5.3,5.3,0,0,1,5.3-5.3H589.5a5.3,5.3,0,0,1,5.31,5.3Z"/></g><g><polygon fill="none" stroke="#59a4ce" stroke-linecap="round" stroke-linejoin="round" stroke-width="4" points="756.71 630.96 816.99 820.63 685.22 630.96 630.26 820.63 756.71 630.96"/><rect width="16.73" height="7.93" x="808.62" y="817.99" fill="#80cbe8" rx="2.45" transform="rotate(-180 816.99 821.955)"/><rect width="16.73" height="7.93" x="621.9" y="817.99" fill="#80cbe8" rx="2.45" transform="rotate(-180 630.265 821.955)"/><rect width="124.19" height="9.54" x="659.55" y="677.71" fill="#80cbe8" rx="3" transform="rotate(-180 721.645 682.48)"/><path fill="#c9effb" d="M852.22,456.74c-.08-1.66-.63-8.69-4.84-12.33-9.31-8-33.82,2.93-49,15-3.83,3.06-37.09,30.43-36,68.76.34,11.69,4.71,54.09,2.51,55.79-.6.47-1.23.91-1.23.91-5,3.51-11.54,6.49-42.27,8.37-36.49,2.23-53.76-.35-82.8,6.16-12.23,2.74-24.26,5.82-28.62,15.41-1.82,4-3.11,10.82,0,15.86,6.69,10.85,27.26,2.79,64.73,3.52,7.34.15,2.37.37,71.79,6.17,8.86.74,20.74,1.61,34.79-3.09,3.16-1,16-5.33,25.1-14.53,12.69-12.78,9-25.65,14.53-60.33,6.53-40.53,10.89-67.68,23.34-84.12C846.05,476,852.77,467.54,852.22,456.74Z"/><path fill="#80cbe8" d="M697.2,627.62c16.68,1.26,30.73,3.67,51.09-.89,10.24-2.28,27.31-6.1,41-18.49,7.32-6.65,13.23-15.38,25.1-63,11.48-46.05,12.36-63.62,29.06-79.27a88.83,88.83,0,0,1,8.83-7.52c-.2,10-6.28,17.66-8,19.85-12.45,16.44-16.81,43.59-23.34,84.12-5.58,34.68-1.84,47.55-14.53,60.33-9.13,9.2-21.94,13.48-25.1,14.53-14.05,4.7-25.93,3.83-34.79,3.09-69.42-5.8-64.45-6-71.79-6.17-35.54-.7-55.85,6.49-63.56-2C628.92,626.67,667.76,625.39,697.2,627.62Z"/></g><g data-name="Patient/Bottom/Sitting"><path fill="#25beef" d="M793.55,552.09s21.36,43.29-18.47,64.07-64.65,28.28-65.8,36.94,6.35,20.2,2.89,54.83-9.24,75.62-9.24,75.62-30.59,4.62-35.21,0,1.15-62.6-4-114.71c0,0-9.81-25,3.17-40.56l14-15.39s-101.74,20-87.26,4.09c16.69-18.3,66.51-36.25,108.14-57.14l2.17-7.75Z"/><path fill="#25beef" d="M793.55,552.09s21.36,43.29-18.47,64.07-64.65,28.28-65.8,36.94,6.35,20.2,2.89,54.83-9.24,75.62-9.24,75.62-30.59,4.62-35.21,0,1.15-62.6-4-114.71c0,0-9.81-25,3.17-40.56l11-10.39,26.11-65.8Z"/><path fill="#d18165" d="M631.6,816.43c9.23-8.27,31.17-18.66,36.17-32.9,3.84,3.84,25.59,1.3,32.84.33h0s3.52,11.22,3.71,19.3,0,10.39,0,10.39l-13.46,1.73v-3.47s-7.89.39-12.12,4.62-16.36,9.81-29.44,9.24S622.36,824.71,631.6,816.43Z"/><path fill="#ffc065" d="M649.31,825.67c13.08.57,25.2-5,29.43-9.24s12.12-4.62,12.12-4.62v3.47l13.47-1.73s.19-2.31,0-10.39a65.57,65.57,0,0,0-1.92-12.67c-.92-3.82-1.8-6.62-1.8-6.62-7.24,1-29,3.49-32.83-.34a26.59,26.59,0,0,1-4.53,7.75c-.62.78-1.29,1.55-2,2.3s-1.19,1.21-1.8,1.8c-.79.75-1.59,1.51-2.44,2.25-8.53,7.42-19.54,13.54-25.43,18.8C622.37,824.71,636.22,825.09,649.31,825.67Z"/><path fill="#7c2f13" d="M649.3 825.67c-10.51-.47-21.49-.81-20.64-5.21 32.84 7.88 45.84-5 48.23-8.84s8.19-4.23 8.19-4.23c10.64-.12 16.33-3.5 19.14-6.1 0 .64.09 1.26.1 1.87.2 8.08 0 10.39 0 10.39l-13.46 1.73v-3.47s-7.89.39-12.12 4.62S662.38 826.24 649.3 825.67zM661.27 793.58c.62.42 1.28.82 1.94 1.19a19.23 19.23 0 002.77 1.35 12.41 12.41 0 003.27.88 8.65 8.65 0 00-1.84-3 11 11 0 00-2.62-2.07 10.69 10.69 0 00-1.54-.7C662.63 792.06 662 792.83 661.27 793.58zM657 797.63c.45.27.9.54 1.37.8a24.5 24.5 0 002.77 1.34 12 12 0 003.27.89 8.35 8.35 0 00-1.84-2.95 11 11 0 00-2.62-2.07 4.06 4.06 0 00-.51-.26C658.68 796.13 657.88 796.89 657 797.63z"/><path fill="#1a87c4" d="M702.93,783.55l-2.35.33h0l-3.63.46h-.07l-3.58.4-1.15.11h0c-1.65.17-3.28.29-4.91.42l-2.09.13-.38,0-2,.1h0l-2.16.06h0c-.71,0-1.41,0-2.1,0h0a38.56,38.56,0,0,1-7.27-.61h0c13.93-12.7,20.1-24.91,23.14-33.48,10.12-28.5,4.3-68.53,2.89-78.21-1.53-10.52-3.24-17.36.34-25.56,4.69-10.72,14-14.46,31.4-22.92,15.85-7.71,30-14.6,40.47-22.78,7.21-5.65,10-15.52,6.16-23.84-2.47-5.38-7.38-9.8-16.71-10.49a96.4,96.4,0,0,1-44.89-15.62h79.63v0l0,0,0,.09,0,.07.08.18,0,.06.14.32a1.17,1.17,0,0,1,.05.11l.13.3.06.15c.06.12.11.25.17.39l0,.11.23.58.06.16c.07.15.13.32.19.49l.09.23q.1.26.21.54c0,.07.05.13.07.2.1.25.19.52.29.8l.06.16.24.7c0,.09.06.19.1.29s.14.45.22.68l.09.28q.15.48.3,1a.57.57,0,0,1,0,.14l.27.9.09.35c.08.26.15.53.22.8l.09.34c.1.38.2.77.29,1.16h0c.1.39.19.79.28,1.2,0,.12.05.25.08.37.07.3.13.61.19.91,0,.14,0,.27.08.41q.11.54.21,1.11l0,.2c.08.43.15.88.21,1.32l.06.39c.05.33.09.67.14,1,0,.15,0,.3.05.45,0,.37.09.74.13,1.11l0,.32.12,1.43c0,.12,0,.25,0,.37l.06,1.11c0,.16,0,.32,0,.48,0,.37,0,.75,0,1.12,0,.13,0,.27,0,.4,0,.5,0,1,0,1.5,0,.11,0,.22,0,.33,0,.4,0,.81,0,1.22l0,.49q0,.57-.09,1.14c0,.15,0,.3,0,.45,0,.51-.11,1-.18,1.55l0,.23q-.09.68-.21,1.35l-.09.49c-.07.38-.14.76-.22,1.14,0,.17-.07.33-.1.49-.12.52-.24,1-.38,1.56a39,39,0,0,1-3.38,8.58c-.26.49-.54,1-.83,1.47l-.31.53c-.36.57-.74,1.14-1.13,1.7q-.13.21-.3.42a36.69,36.69,0,0,1-2.65,3.32l-.37.41c-.49.54-1,1.08-1.54,1.61a49.69,49.69,0,0,1-10.41,7.73l-1.82,1q-5.6,2.93-10.8,5.5c-2.31,1.15-4.55,2.26-6.74,3.32l-3.22,1.56-6.16,2.94-5.76,2.71c-11.1,5.21-19.71,9.19-25.37,12.69a38.25,38.25,0,0,0-3.69,2.55,18.8,18.8,0,0,0-1.82,1.64,7.37,7.37,0,0,0-2.24,4,16.8,16.8,0,0,0-.07,3.42c.2,2.68.87,5.78,1.59,9.71.1.51.2,1,.29,1.58s.17,1,.25,1.45.17,1,.25,1.52a129.15,129.15,0,0,1,1.4,25.14c0,.93-.07,1.89-.12,2.87q-.23,4.28-.7,9.14c-.13,1.3-.27,2.6-.4,3.91l0,.37c-.27,2.62-.56,5.27-.85,7.93l0,.32-.45,4c-.18,1.66-.37,3.32-.56,5v0c-.19,1.6-.38,3.19-.56,4.78l0,.24c-.25,2.15-.51,4.27-.76,6.36-.12,1-.25,2-.37,3l0,.28c-.11.93-.22,1.86-.34,2.77l0,.36c-.24,1.93-.48,3.82-.71,5.65l0,.34q-.36,2.82-.7,5.48c-.94,7.28-1.77,13.49-2.36,17.87,0,.28-.08.54-.11.8s-.07.52-.11.76c-.33,2.42-.56,4.1-.67,4.89C703,783.37,702.93,783.55,702.93,783.55Z"/><path fill="#25beef" d="M701.85,604.86c-39.83,20.77-64.65,28.28-65.8,36.94s6.35,20.2,2.89,54.83-9.24,75.62-9.24,75.62-30.59,4.61-35.21,0,1.15-62.6-4-114.71c0,0-9.81-25,3.17-40.56l13.93-11.14"/><path fill="#d18165" d="M558.37,805.13c9.23-8.27,31.17-18.66,36.17-32.9,3.84,3.84,25.59,1.3,32.84.33h0s3.52,11.21,3.71,19.29,0,10.39,0,10.39L617.63,804v-3.47s-7.89.39-12.12,4.62-16.36,9.81-29.44,9.24S549.13,813.4,558.37,805.13Z"/><path fill="#ffc065" d="M576.07,814.37c13.09.57,25.21-5,29.44-9.24s12.12-4.62,12.12-4.62V804l13.47-1.74s.19-2.31,0-10.39a65.46,65.46,0,0,0-1.92-12.66c-.92-3.82-1.8-6.62-1.8-6.62-7.25,1-29,3.49-32.83-.34A26.55,26.55,0,0,1,590,780c-.62.79-1.29,1.56-2,2.31s-1.19,1.2-1.8,1.8c-.79.75-1.59,1.5-2.44,2.24-8.53,7.43-19.54,13.55-25.43,18.81C549.14,813.4,563,813.79,576.07,814.37Z"/><path fill="#7c2f13" d="M576.07 814.37c-10.51-.47-21.49-.81-20.64-5.21 32.84 7.88 45.84-5 48.23-8.84s8.19-4.23 8.19-4.23c10.64-.12 16.33-3.5 19.14-6.1 0 .64.09 1.26.1 1.86.2 8.08 0 10.39 0 10.39L617.63 804v-3.47s-7.89.39-12.12 4.62S589.15 814.94 576.07 814.37zM588 782.28c.62.42 1.28.82 1.94 1.19a19.23 19.23 0 002.77 1.35 12.41 12.41 0 003.27.88 8.65 8.65 0 00-1.84-3 11 11 0 00-2.62-2.07A12 12 0 00590 780C589.4 780.76 588.73 781.53 588 782.28zM583.8 786.32c.45.28.9.55 1.37.8a22.94 22.94 0 002.77 1.35 12 12 0 003.27.88 8.53 8.53 0 00-1.84-3 11.24 11.24 0 00-2.62-2.07c-.16-.09-.33-.17-.51-.25C585.45 784.83 584.65 785.58 583.8 786.32z"/><path fill="#1a87c4" d="M701.85,604.86q-5.6,2.91-10.8,5.5c-2.31,1.15-4.55,2.26-6.74,3.32l-3.22,1.56-6.16,2.94-5.76,2.71c-11.1,5.21-19.71,9.18-25.37,12.69a36.54,36.54,0,0,0-3.69,2.55,18.8,18.8,0,0,0-1.82,1.64,7.34,7.34,0,0,0-2.24,4,16.8,16.8,0,0,0-.07,3.42c.2,2.68.87,5.77,1.59,9.71.1.51.2,1,.29,1.58s.17,1,.25,1.45.17,1,.25,1.51a129.26,129.26,0,0,1,1.4,25.15c0,.93-.07,1.89-.12,2.86-.15,2.86-.38,5.9-.7,9.15-.13,1.3-.27,2.6-.4,3.91l0,.36c-.27,2.63-.56,5.28-.85,7.93l0,.33-.45,4c-.18,1.66-.37,3.32-.56,5h0c-.19,1.61-.38,3.2-.56,4.79l0,.24c-.25,2.14-.51,4.27-.76,6.35-.12,1-.25,2-.37,3l0,.28c-.11.93-.22,1.86-.34,2.77l0,.36q-.36,2.89-.71,5.65l0,.34q-.36,2.82-.7,5.48c-.94,7.28-1.77,13.49-2.36,17.87,0,.27-.08.54-.11.8s-.07.51-.11.76c-.33,2.41-.56,4.1-.67,4.88,0,.33-.07.5-.07.5-.78.12-1.57.23-2.35.33h0l-3.63.45h-.07l-3.58.39-1.15.12h0c-1.65.16-3.28.29-4.91.42l-2.09.13-.38,0-2,.1h0l-2.16.06h0c-.71,0-1.41,0-2.1,0h0a38.65,38.65,0,0,1-7.27-.6h0C611.83,761,618,748.78,621,740.21c10.12-28.5,4.3-68.53,2.89-78.21-1.53-10.53-3.24-17.36.34-25.56,2.93-6.7,7.66-10.67,15.05-14.78a100,100,0,0,1,30.19-10.74Z"/><polygon fill="#fff" points="671.13 785.3 675.32 781.01 675.57 781.25 671.13 785.3"/><path fill="#fff" d="M682.72 772a81.69 81.69 0 006.12-9.86l1.26.69a81 81 0 01-6.63 9.73zM693.34 751.51a85.84 85.84 0 002.89-11.16l2.29.48a86 86 0 01-3.34 11.33zM697.83 728.89q.55-5.76.67-11.57l3 .1c-.18 3.93-.48 7.85-1 11.76z"/><polygon fill="#fff" points="698.41 705.72 697.73 694.13 701.18 693.87 701.66 705.64 698.41 705.72"/><path fill="#fff" d="M696.53 682.57c-.56-3.83-1-7.68-1.66-11.51l3.73-.57c.58 3.87 1 7.77 1.52 11.66zM693.45 659.21a29.8 29.8 0 01.48-6.23 27.47 27.47 0 011.89-6l3.58 1.6a23.7 23.7 0 00-1.65 5.12 25.56 25.56 0 00-.43 5.41zM703.33 637a55.3 55.3 0 0110.18-6.54l1.86 3.51a55.08 55.08 0 00-9.47 6.07z"/><polygon fill="#fff" points="724.06 625.28 734.58 620.2 736.28 623.67 725.76 628.82 724.06 625.28"/><polygon fill="#fff" points="745.01 615.02 755.24 609.54 757.06 612.68 746.75 618.38 745.01 615.02"/><path fill="#fff" d="M765 603.42l2.32-1.69a24.66 24.66 0 002.16-1.71 19.42 19.42 0 003.44-4.12l2.79 1.69a22.15 22.15 0 01-3.93 4.91 24.35 24.35 0 01-2.39 2l-2.38 1.8zM775.74 585.64a17.43 17.43 0 00-3.54-10l2.12-1.69a20.12 20.12 0 014.4 11.58zM763.21 569.88a27.53 27.53 0 00-2.73-.57c-.93-.14-1.86-.2-2.85-.35l-5.87-.78.3-1.94 5.75.57c.94.11 2 .15 3 .27a25.82 25.82 0 013 .53zM740.3 565.35a102.62 102.62 0 01-11-4.18l.37-.87a100.34 100.34 0 0011 3.66zM718.93 555.72c-1.71-1.05-3.39-2.14-5-3.33 1.67 1.1 3.41 2.08 5.17 3z"/></g><g data-name="Doctor/Head/Male"><g data-name="Doctor/Head/Male/7"><path d="M761.41,365s-2.5,30.3-14.49,43.44-.21-44.45-.21-44.45Z"/><path fill="#ea9d7d" d="M722.92,423.13c.63-2.21-2-7.61-3.6-10.72,10.85,1.67,23.77-6,30.5-19.56a4.6,4.6,0,0,0,1.3.47s1,28.21,7.17,28.56c7.14,6.14,30.51,26.9,25.75,36.53-4,8.08-25.56,3.91-57.72-2.3a16.18,16.18,0,0,1-8.39-4c-6.74-6.44-4.9-18-3.95-20.61C715.21,428.09,722,426.33,722.92,423.13Z"/><path fill="#d18165" d="M746.37,426.34c4.26-9.24-4.69-11.19-4.69-11.19l.06-.13c-5.92,4-12.53,5.73-18.46,4.57-.28,0-.56-.12-.83-.19a47.94,47.94,0,0,0-3.13-7.06c10.85,1.67,23.16-6.72,29.89-20.28a2,2,0,0,0,1.91,1.19s.2,5.24.91,11.24h0c.94,7.92,2.78,17.18,6.27,17.38,9.69,8.23,33.09,29.16,28.39,38.45s-36.81,6-60.36-4.22c-3.58-1.56-6.52-3.09-8.65-4.27C732.38,453.45,742.54,434.64,746.37,426.34Z"/><path fill="#ea9d7d" d="M736.11,339.63c12.4,2.42,20,18.21,18.25,36.54h.1c3.39.66,5.39,5,4.47,9.77s-4.42,8-7.81,7.37a2.78,2.78,0,0,1-2-1c-6.89,13.87-19.53,22.11-30.53,20-13.66-2.66-18.49-19.51-14.47-40.14S722.46,337,736.11,339.63Z"/><path fill="#d18165" d="M754.58,380.38a4.75,4.75,0,0,1,1.8,2.35,5.43,5.43,0,0,1,.23,3.07,5.61,5.61,0,0,1-1.42,2.73,6.19,6.19,0,0,1-1.15,1,6.74,6.74,0,0,1-1.35.59c.19-.48.44-.87.64-1.27s.42-.77.57-1.16a10.54,10.54,0,0,0,.75-2.24A13.74,13.74,0,0,0,754.58,380.38Z"/><path fill="#be3e5f" d="M722.86,396.82a83.31,83.31,0,0,0-10.67,4s-.82-5.31,3.39-6.94S722.86,396.82,722.86,396.82Z"/><path fill="#d18165" d="M713.05,370.88a19.6,19.6,0,0,1,.12,6.26,10.42,10.42,0,0,1-.92,3.18c-.28.57-.55.92-.81,1.37s-.51.84-.73,1.26a5.49,5.49,0,0,0-.8,2.37,1.08,1.08,0,0,0,.29.81,2.77,2.77,0,0,0,.94.64,24.09,24.09,0,0,0,5.84,1,12.48,12.48,0,0,1-6.34.45,3.91,3.91,0,0,1-1.68-.88,3,3,0,0,1-.94-1.92A6.38,6.38,0,0,1,709,382c.26-.48.54-.94.83-1.38s.62-.89.82-1.22a12,12,0,0,0,1-2.6C712.2,374.91,712.6,372.91,713.05,370.88Z"/><path d="M730.12 367.76a44.65 44.65 0 01-6 .63 17.86 17.86 0 01-2.92-.15c-1-.09-1.94-.35-3-.55a7 7 0 002.73 1.72 9.11 9.11 0 003.23.51 10.44 10.44 0 003.19-.57A8.07 8.07 0 00730.12 367.76zM705.22 368.08c.27.09.55.16.83.23a10.88 10.88 0 001.59.23 10.1 10.1 0 001.65 0 8.21 8.21 0 003.1-.86c-1.48-.15-2.88-.28-4.23-.51-.6-.09-1.18-.21-1.76-.35-.26-.05-.51-.11-.76-.18C705.49 367.11 705.35 367.59 705.22 368.08zM706.72 378.44a1.54 1.54 0 001.8-1.21l.86-4.4a1.53 1.53 0 10-3-.58l-.86 4.39A1.53 1.53 0 00706.72 378.44zM722.14 379.38a1.54 1.54 0 001.8-1.21l.85-4.4a1.53 1.53 0 00-3-.58l-.86 4.39A1.53 1.53 0 00722.14 379.38z"/><path fill="#25beef" d="M733.19,382.87s-24.67-1.56-30.37,0c0,0-2.08,25.49,14.23,29.12s25.83-9,25.83-9Z"/><path fill="#25beef" d="M751.2 393.4a24.71 24.71 0 00-3.6 2.58 43.07 43.07 0 00-3.21 3c-1 1-2 2.14-2.9 3.28a25 25 0 00-2.49 3.68 25.08 25.08 0 003.61-2.59 41 41 0 003.21-3 42.88 42.88 0 002.89-3.28A25.43 25.43 0 00751.2 393.4zM750.64 377a49.79 49.79 0 00-6.1 1.49q-3 .9-5.89 2c-1.95.74-3.86 1.55-5.75 2.43a48.36 48.36 0 00-5.54 2.95 49.35 49.35 0 006.1-1.49c2-.61 4-1.27 5.9-2s3.85-1.55 5.74-2.43A49 49 0 00750.64 377z"/><path fill="#fff" d="M719.4,385.87a12.9,12.9,0,0,0-3.63-1.5,17.33,17.33,0,0,0-3.86-.59,14.22,14.22,0,0,0-3.95.35,8.16,8.16,0,0,0-3.58,1.74c1.34-.13,2.55-.17,3.77-.19s2.45.06,3.68.09C714.29,385.85,716.76,386,719.4,385.87Z"/><path fill="#1a87c4" d="M717.05,412a14.78,14.78,0,0,1-7.26-3.93c4.09-1.12,10.44-1.54,15.29-7.07a19.18,19.18,0,0,0,4.68-10.08,18.59,18.59,0,0,0-1-8.29c2.7.13,4.48.25,4.48.25L742.88,403S733.36,415.63,717.05,412Z"/><path d="M707.24,361.63s8-9.29,34-4.46c0,0-4.11,8.6-.37,10.56s4.61,2.49,3,7.63-4.6,10.45-.29,8.84,11.58-13.84,13.87-4.5c2.23,9-3,12-2.5,13.32a.6.6,0,0,0,.32.27c1.67.51,8.26-9.84,9.83-19.61,2.12-13.2-4.27-29.31-16.42-35.75a30.21,30.21,0,0,0-10.8-3.12c-21.47-2.9-45.65,9.56-44.88,17.76C693.29,355.22,696.24,358.48,707.24,361.63Z"/></g></g><g data-name="Patient/Torso"><path fill="#ea9d7d" d="M661,616a24.18,24.18,0,0,1,2.85-4.77c9.5-12.34,37.58-49.53,47.37-76.3,3.12-8.54,9.87-59.23,9.87-59.23L686.8,458.64l-8.2,63.42a27.77,27.77,0,0,1-2.37,8.12l-29.81,69.33a8.06,8.06,0,0,1-5.4,4.42c-6.69,1.63-20.11,5.07-21.26,6.74-1.54,2.23-2.89,7.16,11.44,3.49,0,0,.22,2.19-2.82,6.59S613.21,641.69,614.32,643s1,7.5,17.39-15.13c0,0,2.8.47,1.43,2.45S618.63,651.11,622.39,651s5.16-3.23,15.77-18.08c0,0,2.38,0,2.12.91s-12.1,19.14-10.61,20.17,1.13,5.54,17.52-20.9c0,0,1.13.23.08,3.35s-6.08,16.52-2.66,14.48,3.06-2.84,8.62-18.61L661,616Z"/><path fill="#d18165" d="M686.8,458.65,684.69,475l7.27,3.09s-3.68,51-6.28,59.71c-8.16,27.32-33.32,66.58-42,79.46a24.07,24.07,0,0,0-2.55,4.94l-6.19,15.31,3.27-4.6s2.38,0,2.12.91c-.18.62-5.64,9.14-8.7,14.92-.71,2.52-1.21,4.22-1.68,5.44,1.27,1.24,1.79,3.91,17.29-21.09,0,0,1.13.23.08,3.35s-6.08,16.52-2.66,14.48,3.06-2.84,8.62-18.61L661,616a24.18,24.18,0,0,1,2.85-4.77c9.5-12.34,37.58-49.53,47.37-76.3,3.12-8.54,9.87-59.23,9.87-59.23Z"/><path fill="#ef3e3b" d="M677.32,488,691.68,443a.79.79,0,0,1,.13-.26c.82-1.19,7.5-10.58,15.5-14.43a1,1,0,0,1,1.44.94L706.84,488Z"/><path fill="#25beef" d="M677.32,488,691.68,443a.79.79,0,0,1,.13-.26c.82-1.19,7.5-10.58,15.5-14.43a1,1,0,0,1,1.44.94L706.84,488Z"/><path fill="#1a87c4" d="M708.34,441.67,706.84,488H691.07c-.37-11.25.47-23.69,7-37.51,4.48-9.42,7.07-9.9,8.16-9.84A3.27,3.27,0,0,1,708.34,441.67Z"/><path fill="#ea9d7d" d="M852.81,622.34a23.27,23.27,0,0,1-.73-5.51c-.23-15.56-1.72-75-10.68-102-2.86-8.63-29.07-52.54-29.07-52.54l-37.44,7.92,33,54.78a27.44,27.44,0,0,1,3.18,7.84l20.11,85.64a8.06,8.06,0,0,1-1.49,6.82c-4.23,5.43-12.6,16.46-12.47,18.49.18,2.71,2.18,7.41,11.14-4.37,0,0,1.52,1.58,1.88,6.91s1.13,25.84,2.81,26.18,5.49,5.23,4.23-22.66c0,0,2.48-1.37,2.64,1s1.54,25.29,4.4,22.83,2-5.73,1.12-24c0,0,1.86-1.48,2.22-.6s2.42,22.51,4.22,22.39,4.33,3.65.75-27.26c0,0,1-.52,2.14,2.58s5.5,16.72,6.91,13,.64-4.12-4.81-19.93l-4-17.57Z"/><path fill="#d18165" d="M774.89,470.2l8.84-1.87c6.59,8.37,14.8,14.46,25.48,30.1,8.32,12.18,13.71,24.58,16.11,29.83,6.56,14.36,5.23,21.68,9.6,57.12,2.62,21.27,3.94,31.91,5.32,37.48,0,0,9.88,39.85,5.06,49.72a2.78,2.78,0,0,1-1,1.12c-2.86,2.46-4.24-20.42-4.4-22.83s-2.64-1-2.64-1c1.26,27.89-2.54,23-4.23,22.66s-2.45-20.76-2.81-26.14h0v0c-.36-5.33-1.88-6.91-1.88-6.91-9,11.78-11,7.08-11.14,4.37-.13-2,8.24-13.06,12.47-18.49a8.06,8.06,0,0,0,1.49-6.82l-20.11-85.64a27.44,27.44,0,0,0-3.18-7.84Z"/><polygon fill="#fff" points="679.34 481.67 705.86 481.67 705.86 485.67 678.07 485.67 679.34 481.67"/><path fill="#e3eaf3" d="M691,481.67h14.84v4H691C691,484.35,691,483,691,481.67Z"/><polygon fill="#fff" points="682.27 472.46 705.37 472.46 705.37 476.46 681 476.46 682.27 472.46"/><path fill="#e3eaf3" d="M691.67,472.46h13.7v4h-14.1C691.37,475.14,691.5,473.81,691.67,472.46Z"/><path fill="#25beef" d="M708.47,556.16H786a8.42,8.42,0,0,0,8.33-9.69L776,425.76l-18.85-4.17c-6.73,14.27-27.45,14.92-34.07.59l-14.3,5.44a10.89,10.89,0,0,0-8.3,11.16l.14,4.5L704.21,552C704.22,552.34,704.3,553.8,708.47,556.16Z"/><path fill="#25beef" d="M826.61,486.21a4,4,0,0,0,1-5.67l-28.21-39.16s-10-12.88-23.34-15.62L768.4,465.5l27,41a1.36,1.36,0,0,0,1.91.36Z"/><path fill="#1a87c4" d="M795.35,506.46l-26.77-40.68.06-.39a4.34,4.34,0,0,1,6.9-2.8c5.11,3.88,11.64,10.57,17.62,16.71,6.24,6.4,12.94,13.27,16.05,19.13l-12,8.39A1.36,1.36,0,0,1,795.35,506.46Z"/><rect width="41.07" height="4" x="788.72" y="488.24" fill="#fff" transform="rotate(-35.22 809.266 490.242)"/><path fill="#e3eaf3" d="M804.26,491.31c.88,1.07,1.7,2.13,2.45,3.17l-13.08,9.23-1.15-1.63-1.1-1.67Z"/><rect width="40.65" height="4" x="783.17" y="479.85" fill="#fff" transform="rotate(-33.22 803.396 481.836)"/><path fill="#e3eaf3" d="M800.05,486.5l-12.46,8.16-1.05-1.61-1.14-1.74,11.87-7.77C798.21,484.53,799.14,485.51,800.05,486.5Z"/><path fill="#1a87c4" d="M704.21,552c5.87-2.08,21.16-2.15,44.31-9.44,21.72-6.85,26.1-12.4,28.08-16.38,4.65-9.36,1.61-21.22.36-26.1-2.25-8.77-2.88-12.11-7.38-23.22-1.51-3.73-2-12.76,0-13.5,2.33-.86,8.92,9.19,15.66,23.16l9.07,59.91a8.42,8.42,0,0,1-8.33,9.69H708.47a4.26,4.26,0,0,1-4.26-4.12Z"/></g><g data-name="Doctor/Bottom"><path fill="#454851" d="M553 825.65c-14 2-27.63-2.68-32.63-6.78s-13.13-2.48-13.13-2.48l.24 9.75-14.66-.43s-.72-9.67-1.38-18.37c-.33-4.36 1.09-6.78 1.65-11s3.58-11 3.58-11c7.9.26 28.26 1.45 32-3.08a28.25 28.25 0 005.69 7.84c.75.78 1.56 1.54 2.38 2.27s1.4 1.17 2.12 1.74c.93.73 1.87 1.45 2.86 2.15 10 7.07 22.46 12.48 29.35 17.5C581.89 821.74 567 823.63 553 825.65zM413.47 818.32c-12.94-5.72-22-16.93-24.06-23.06S379.9 785 379.9 785l-4.1 6.54-12.2-8.13s3.35-5.52 7.41-13.25c2-3.86 4.53-5.17 7.22-8.41s8.86-7.4 8.86-7.4c6.55 4.41 23.17 16.23 28.72 14.36a28.3 28.3 0 00.66 9.66c.23 1.06.51 2.13.82 3.19.28.87.57 1.73.87 2.6.4 1.11.82 2.22 1.29 3.34 4.69 11.28 12.41 22.49 15.59 30.4C440 830.31 426.41 824 413.47 818.32z"/><path fill="#25beef" d="M519.69,493.33s15.62,138.53,16.1,150.74-6.59,139.12-6.59,139.12-19,7.65-32.62,2.44c0,0-10.74-97.3-9.11-122l-3.58-46.86s-2.93,39-5.86,43.61S418.15,772,418.15,772s-32.55-14.64-32.55-18.87c0,0,18.88-78.11,43-99.91l.33-90.64A90.76,90.76,0,0,1,423,519.59a89.11,89.11,0,0,1,7.32-26.85S500.17,503.09,519.69,493.33Z"/><path fill="#1a87c4" d="M485,601.6c2.6-30.05,8-58.77,9.76-58.58,1.35.14-.05,15.07-.49,49.3-.36,27.93.19,46.68,1,73.22,1.53,51.81,3.6,60.69,5.82,67.86a139.27,139.27,0,0,0,28.1,49.79c-6.4,2.88-16.77,6.2-28.36,3.64a38.76,38.76,0,0,1-4.26-1.2s-10.74-97.3-9.11-122L484,618.23C484.14,613.68,484.41,608.67,485,601.6Z"/><path fill="#1a87c4" d="M409.82,722.42c4-21.46,16.14-25.69,26.12-50.79,6-15.12,6.71-32.47,8.1-67.17,2.13-53.22-3.48-57.3,3.53-70.23,18.47-34.08,72.88-35.21,72.12-40.9-21.08,7.24-79.62.65-88.26-.45h0l-.7-.09h-.34A89.11,89.11,0,0,0,423,519.59a90.76,90.76,0,0,0,5.86,42.95l-.33,90.64c-24.08,21.8-43,99.91-43,99.91.76,1,1.57,1.93,2.43,2.87,6.55,5.07,24.41,13.39,29,15.5l.1,0,.09,0,.23.11.14.07.1,0,.13.06.06,0,.26.11C412.36,760.07,406.1,742.21,409.82,722.42Z"/><path fill="none" stroke="#fff" stroke-miterlimit="10" stroke-width="3" d="M427.27,500.55s51.46,13,93.23,0"/></g><g data-name="Doctor/Head/Male"><path d="M467.92 281.08s-10.66.53-11.26 12.75-9.79 8.8-9.79 8.8 6.15 9.36 18.47-.36 13.93-11 13.93-11 0-9.71-10.55-10.25M463.08 306.7s2.5 30.3 14.48 43.44.22-44.45.22-44.45z"/><path fill="#ea9d7d" d="M501.57,364.85c-.63-2.21,1.95-7.61,3.6-10.72-10.85,1.67-23.78-6-30.51-19.56a4.43,4.43,0,0,1-1.29.47s-1.05,28.21-7.17,28.56c-7.15,6.14-30.51,26.9-25.75,36.53,4,8.08,25.56,3.91,57.72-2.3a16.21,16.21,0,0,0,8.39-4c6.74-6.44,4.9-18,3.95-20.61C509.28,369.81,502.47,368.05,501.57,364.85Z"/><path fill="#d18165" d="M478.12,368.06c-4.27-9.24,4.69-11.19,4.69-11.19l-.06-.13c5.92,4,12.53,5.73,18.46,4.57.28-.05.55-.12.83-.19a47.36,47.36,0,0,1,3.13-7.06c-10.85,1.67-23.16-6.71-29.89-20.28a2,2,0,0,1-1.91,1.19s-.2,5.25-.91,11.24h0c-.94,7.92-2.78,17.18-6.27,17.38-9.69,8.23-33.09,29.17-28.39,38.45s36.81,6,60.36-4.22c3.58-1.56,6.52-3.08,8.65-4.26C492.11,395.17,482,376.36,478.12,368.06Z"/><path fill="#ea9d7d" d="M488.38,281.35c-12.4,2.42-20,18.21-18.26,36.54H470c-3.39.66-5.39,5-4.47,9.77s4.42,8,7.81,7.37a2.78,2.78,0,0,0,2-1c6.89,13.87,19.53,22.11,30.53,20,13.66-2.66,18.49-19.51,14.46-40.14S502,278.69,488.38,281.35Z"/><path fill="#be3e5f" d="M501.88,339.45A82.69,82.69,0,0,1,513.17,341s-.37-5.36-4.85-6S501.88,339.45,501.88,339.45Z"/><path fill="#d18165" d="M511.46,312.56c.45,2,.84,4,1.39,5.93a12,12,0,0,0,1.06,2.6c.19.33.54.8.82,1.22s.57.9.83,1.38a6.41,6.41,0,0,1,.93,3.44,3,3,0,0,1-.94,1.92,3.8,3.8,0,0,1-1.68.88,12.37,12.37,0,0,1-6.34-.45,24,24,0,0,0,5.83-1,2.82,2.82,0,0,0,.95-.64,1.12,1.12,0,0,0,.29-.81,5.42,5.42,0,0,0-.8-2.36c-.22-.42-.47-.84-.74-1.27s-.53-.8-.8-1.37a10.15,10.15,0,0,1-.92-3.18A19.31,19.31,0,0,1,511.46,312.56Z"/><path d="M493.34 309.87a45.2 45.2 0 006-.58 18.37 18.37 0 002.83-.73c1-.29 1.84-.74 2.85-1.15a6.85 6.85 0 01-2.34 2.23 8.8 8.8 0 01-3.06 1.15 10.36 10.36 0 01-3.24.08A8 8 0 01493.34 309.87zM518.52 306.78c.16.48.32 1 .47 1.46l-.15 0a10.68 10.68 0 01-3.24.07 8 8 0 01-3.05-1A44.78 44.78 0 00518.52 306.78zM517.78 320.12a1.53 1.53 0 01-1.79-1.21l-.86-4.4a1.53 1.53 0 013-.58l.85 4.4A1.52 1.52 0 01517.78 320.12zM502.37 321.06a1.54 1.54 0 01-1.8-1.21l-.86-4.4a1.53 1.53 0 013-.58l.86 4.4A1.53 1.53 0 01502.37 321.06z"/><path fill="#d18165" d="M469.91,322.1a13.74,13.74,0,0,0-.07,5,10.54,10.54,0,0,0,.75,2.24c.14.39.38.75.57,1.16s.45.79.64,1.27a7.08,7.08,0,0,1-1.36-.59,6.46,6.46,0,0,1-1.14-.95,5.61,5.61,0,0,1-1.42-2.73,5.43,5.43,0,0,1,.23-3.07A4.74,4.74,0,0,1,469.91,322.1Z"/><path d="M470,317.83s5.86,20.62,10.68,27.45c4.46,6.32,12.8,12.57,25.79,11.21a12.91,12.91,0,0,0,6.75-2.74c3.8-3.07,9.24-9.53,8.2-20.93,0,0-3.31-3.75-12.23-3.56s-11.17,2.47-12.7,4.21-8.34,10-11.76,7.45-11.61-19.39-7.74-28.43,8.33-5.3,3.6-15.6c0,0,6.77-2.48,18.6.12a10.38,10.38,0,0,0,7.2-.94c1.78-1,3.38-2.43,3.23-4.45a64.71,64.71,0,0,1,8,12.77s5.73-8.71-2.27-15.93c-6.81-6.15-8.94-9.83-11.22-10.69-4.52-1.71-6.41,1-10.86,1.78s-5.3-2.05-10.48.71-7.39,6.92-9.16,10.88c0,0-5.09-.7-9.73,8.43C461.91,303.62,461.18,324.25,470,317.83Zm30.43,15.84c1.21-1.17,4.71-3.07,9.79-2.17,4.85.85,5.5,4,6.25,6.39a8.17,8.17,0,0,1,.34,3.57c-.34,2.4-1.57,3.28-3.7,3.51-2.64.29-3.22-3.56-5.11-3.36s-1.62,3.47-6.3,3.67S497.34,336.67,500.46,333.67Z"/></g><g data-name="Doctor/Torso"><path fill="#25beef" d="M516.89,497.58H439.38a8.42,8.42,0,0,1-8.33-9.69l18.29-120.71L468.19,363c6.73,14.28,27.45,14.93,34.07.6l14.3,5.44a10.91,10.91,0,0,1,8.31,11.16l-.15,4.5-3.57,108.76C521.14,493.75,521.06,495.21,516.89,497.58Z"/><path fill="#1a87c4" d="M430,447.87l26.77-40.68-.06-.38a4.33,4.33,0,0,0-6.9-2.8c-5.11,3.88-11.64,10.57-17.62,16.7-6.24,6.4-12.94,13.28-16.05,19.14l12,8.39A1.36,1.36,0,0,0,430,447.87Z"/><path fill="#e3eaf3" d="M421.1 432.73c-.88 1.07-1.7 2.13-2.45 3.17l13.08 9.23 1.15-1.63 1.11-1.67zM425.31 427.92l12.46 8.16 1.06-1.61 1.13-1.74L428.09 425C427.15 425.94 426.22 426.93 425.31 427.92z"/><path fill="#1a87c4" d="M521.15,493.46c-5.87-2.08,5.59-43.14-18.32-38.95-21.66,3.79-51.56,14.87-53.53,10.9-4.65-9.36-2.15-19-.9-23.88,2.25-8.76,2.88-12.1,7.38-23.22,1.51-3.73,2-12.76,0-13.5-2.33-.85-8.92,9.2-15.65,23.17l-9.08,59.91a8.42,8.42,0,0,0,8.33,9.69h77.51a4.26,4.26,0,0,0,4.26-4.12Z"/><path fill="#e3eaf3" d="M467.94,357.81l4.54,114,34.73-13.9a3.94,3.94,0,0,1,5.36,3L516,482a3.94,3.94,0,0,1-2,4.13c-7.87,4.16-32.44,17.21-47.43,25.62L457.16,634.2l-58.07,1.57s3.07-104.11,5.16-120.9-3.91-117.34,11.31-134.63C434.13,359.15,467.94,357.81,467.94,357.81Z"/><path fill="#abbcca" d="M404.25,514.87c1.12-9-.44-42.17.37-73.61,3,49.11,8,63,22.86,71.91s39.09-1.44,39.09-1.44-.67,6.29-1.19,15.54l-.41-.4c-27.75,14.94-53,17.38-62.61,18.43C402.36,545.3,403.68,519.47,404.25,514.87Z"/><path fill="#abbcca" d="M422.26,374.62h0s34,3.48,28.33,58.26a27.22,27.22,0,0,0,6.62,21.24,23.42,23.42,0,0,0,14.84,7.78h0c.32,7.1.43,9.93.43,9.93a138.93,138.93,0,0,1-15.76,2.44c-4.45,3.09-13.51,9.67-17.22,14.33a44.44,44.44,0,0,1,10.74-18.13,4.4,4.4,0,0,1-.21-.5,102.22,102.22,0,0,1-3.55-42.83S449.61,381.94,422.26,374.62Z"/><path fill="#ea9d7d" d="M608.77,491.06l.66-3.16s17-2.39,21.2-4.73,13-8.17,14.46-7.68,3.76,3.25.26,6.17-10.34,8.86-8.73,9.7,25.29,4.77,26.44,5.85,3.77,5,.49,7.09a12.59,12.59,0,0,1-5.91,2.17s2.09,7.24-6.09,4.63c0,0-.83,6.25-6.88,3.25,0,0-2.07,5.61-7.34,3.69s-34.83-7-34.83-7"/><path fill="#d18165" d="M639.67,518.16a28.3,28.3,0,0,1-3.7-1.94,31.84,31.84,0,0,1-3.46-2.39,18.32,18.32,0,0,1-3.11-3.06,7,7,0,0,1-1.19-2.23,3.51,3.51,0,0,1-.1-1.64,3.23,3.23,0,0,1,.85-1.65l-.1.11a4.84,4.84,0,0,1,.81-.78,5.82,5.82,0,0,1,.88-.58,5.15,5.15,0,0,1,2.1-.59,5.23,5.23,0,0,1,2.13.31,7.08,7.08,0,0,1,.93.41c.29.16.55.34.82.52l-2.3,1a8.79,8.79,0,0,1,.83-2.63,5.55,5.55,0,0,1,2-2.25,4.23,4.23,0,0,1,3-.6,6.55,6.55,0,0,1,1.35.37,12.55,12.55,0,0,1,1.16.58l-1.41.82a6.58,6.58,0,0,1,.69-2,4.42,4.42,0,0,1,1.4-1.61,3.25,3.25,0,0,1,2-.62,4.65,4.65,0,0,1,1.87.42c-.32,0-.62,0-.92,0a3.77,3.77,0,0,0-.85.18,2.7,2.7,0,0,0-1.32.86,3.51,3.51,0,0,0-.69,1.36,5.09,5.09,0,0,0-.21,1.51l.06,1.21-1.47-.39c-.33-.08-.65-.2-1-.29a4.76,4.76,0,0,0-.89-.1,1.89,1.89,0,0,0-1.34.45,3.48,3.48,0,0,0-.88,1.29,7.05,7.05,0,0,0-.45,1.75l-.24,2.27-2.06-1.23a5,5,0,0,0-1-.51,2.24,2.24,0,0,0-1-.14,2.08,2.08,0,0,0-.92.25,4,4,0,0,0-.44.27,2.76,2.76,0,0,0-.35.29l-.07.05,0,.06c0,.07-.09.07-.09.14a.71.71,0,0,0,0,.38,5.24,5.24,0,0,0,.64,1.43,22.39,22.39,0,0,0,2.38,3c.88,1,1.84,2,2.8,2.93Z"/><line x1="607.67" x2="607.67" y1="488.98" y2="511.17" fill="none" stroke="#2f170b" stroke-linecap="round" stroke-linejoin="round" stroke-width="6"/><path fill="#ef3e3b" d="M548,429.43l-14.35-45.05a2.24,2.24,0,0,0-.13-.27c-.83-1.18-7.51-10.57-15.51-14.43a1,1,0,0,0-1.43.94l1.9,58.81Z"/><path fill="#25beef" d="M548,429.43l-14.35-45.05a2.24,2.24,0,0,0-.13-.27c-.83-1.18-7.51-10.57-15.51-14.43a1,1,0,0,0-1.43.94l1.9,58.81Z"/><path fill="#1a87c4" d="M517,383.09l1.5,46.34h15.77c.37-11.26-.47-23.69-7-37.52-4.48-9.42-7.07-9.89-8.16-9.84A3.29,3.29,0,0,0,517,383.09Z"/><polygon fill="#fff" points="546.02 423.08 519.5 423.08 519.5 427.08 547.29 427.08 546.02 423.08"/><path fill="#e3eaf3" d="M534.34,423.08H519.5v4h14.85C534.37,425.77,534.37,424.43,534.34,423.08Z"/><polygon fill="#fff" points="543.09 413.88 519.99 413.88 519.99 417.88 544.36 417.88 543.09 413.88"/><path fill="#e3eaf3" d="M533.69,413.88H520v4h14.1C534,416.56,533.86,415.23,533.69,413.88Z"/><path fill="#e3eaf3" d="M502.83,357.81v276h42.08l-12-136.74a51.36,51.36,0,0,0,12,5.65c10.62,3.29,45.53,12.52,59,11.92a4.46,4.46,0,0,0,4.27-4.47V486.82c0-2.29-1.93-3.48-4-4.45-16.21-7.61-39.34-19.39-44-22.08C554.43,457,556,364.41,502.83,357.81Z"/><path fill="#abbcca" d="M527.59,415.37a42.74,42.74,0,0,0-7.05,23.05c.05,13.23,4.69,58.37,4.89,73.6s3.58,48.8.81,75.93c-1.91,18.74-6.28,35.86-11.41,45.86h30.08l-12-136.74S526,434.54,527.59,415.37Z"/><line x1="608.22" x2="608.22" y1="488.48" y2="510.66" fill="none" stroke="#2f170b" stroke-linecap="round" stroke-linejoin="round" stroke-width="6"/><path fill="none" stroke="#2f170b" stroke-linecap="round" stroke-linejoin="round" stroke-width="5" d="M458.55 359s-14 21.81-5.54 72.45M511.18 359.67s5.37 9.41 2.49 39.57"/><path fill="none" stroke="#2f170b" stroke-linecap="round" stroke-linejoin="round" stroke-width="3" d="M521.42,447.41c8,2.34,11.28-12.61,11.28-12.61,0-18.74-7.15-33.94-16-33.94h-5.05c-8.82,0-16,15.2-16,33.94,0,0,3.05,14.95,11,12.61"/><ellipse cx="507.37" cy="447.23" fill="#2f170b" rx="2.26" ry="3.6"/><ellipse cx="520.05" cy="447.23" fill="#2f170b" rx="2.26" ry="3.6"/><circle cx="453.52" cy="432.17" r="8.96" fill="#2f170b"/><circle cx="453.52" cy="432.17" r="5.7" fill="#abbcca"/><circle cx="453.52" cy="432.17" r="2.64" fill="#2f170b"/><polygon points="690.23 516.39 673.58 511.17 675.74 506.66 690.23 516.39"/><path fill="#1a87c4" d="M672.24,505.15H677a.79.79,0,0,1,.79.79v5.21a1.7,1.7,0,0,1-1.7,1.7h-2.94a1.7,1.7,0,0,1-1.7-1.7v-5.21a.79.79,0,0,1,.79-.79Z" transform="rotate(115.63 674.621 508.965)"/><rect width="6.34" height="7.7" x="632.21" y="486.33" fill="#1a87c4" transform="rotate(115.63 635.386 490.15)"/><path fill="#e3eaf3" d="M651.36,480.78h11a1,1,0,0,1,1,1v38.45a0,0,0,0,1,0,0H650.39a0,0,0,0,1,0,0V481.74a1,1,0,0,1,1-1Z" transform="rotate(115.63 656.849 500.447)"/><path fill="#25beef" d="M657.4,507.91a8.26,8.26,0,0,0,1.41-5.48A8.72,8.72,0,0,0,657,498.3c-2.56-3.66-5-3.14-7.15-6.31a11.45,11.45,0,0,1-1.34-2.66l-6.66-3.19-5.58,11.64Z"/><rect width="20.16" height="3.4" x="627.47" y="489.53" fill="#ef3e3b" rx="1.7" transform="rotate(115.63 637.551 491.191)"/><rect width="14.55" height="3.4" x="623.1" y="486.09" fill="#ef3e3b" rx="1.7" transform="rotate(115.63 630.385 487.749)"/><line x1="667.12" x2="665.7" y1="508.93" y2="511.89" fill="none" stroke="#000" stroke-miterlimit="10" stroke-width="3"/><line x1="663.44" x2="662.02" y1="507.16" y2="510.12" fill="none" stroke="#000" stroke-miterlimit="10" stroke-width="3"/><line x1="659.77" x2="658.35" y1="505.4" y2="508.36" fill="none" stroke="#000" stroke-miterlimit="10" stroke-width="3"/><line x1="656.09" x2="654.67" y1="503.64" y2="506.6" fill="none" stroke="#000" stroke-miterlimit="10" stroke-width="3"/><line x1="652.41" x2="650.99" y1="501.87" y2="504.83" fill="none" stroke="#000" stroke-miterlimit="10" stroke-width="3"/><line x1="648.74" x2="647.32" y1="500.11" y2="503.07" fill="none" stroke="#000" stroke-miterlimit="10" stroke-width="3"/><line x1="645.06" x2="643.64" y1="498.35" y2="501.31" fill="none" stroke="#000" stroke-miterlimit="10" stroke-width="3"/><line x1="641.38" x2="639.96" y1="496.58" y2="499.54" fill="none" stroke="#000" stroke-miterlimit="10" stroke-width="3"/><path fill="#ea9d7d" d="M527.21,441.24c2.67-.52,7.72.22-1.4,11.87l.11.06c.45.19,2.5.89,7.06,0,5.24-1,22.93-4.27,26-3.93,1.68.18,6.3,3.91-19.72,9.6a1.43,1.43,0,0,0-1.06,1.92c.21.46.66.79,1.61.61,2.38-.46,22.62-5.27,23.2-1.54.43,2.72-5,3.42-22.89,7.16,0,0-2.62,1.44,0,2.31.9.3,21.35-2.94,22.73-1.61s4.62,3.26-26.18,7.65c0,0-.46.44,2.54,1.29,3.19.91,11.94,1,14.81,3.51s-3.82,1.66-20.49.41l-18,.54h-.85a9.34,9.34,0,0,0,.5-3.08,29.49,29.49,0,0,0-1-7.55,30.15,30.15,0,0,0-3.93-8.74l-.13-.94s1.74-2.29,4.11-5.29C518.69,449.83,525.47,441.57,527.21,441.24Z"/></g><g><path fill="#a04833" d="M779.78,183.78V301.33a5,5,0,0,0,5,5H912.56a5,5,0,0,0,5-5V183.78a5,5,0,0,0-5-5H784.78A5,5,0,0,0,779.78,183.78ZM901.37,296H796a5,5,0,0,1-5-5V194.13a5,5,0,0,1,5-5h105.4a5,5,0,0,1,5,5V291A5,5,0,0,1,901.37,296Z"/><rect width="115.4" height="106.83" x="790.97" y="189.13" fill="#e3eaf3" rx="5"/><path fill="#37d6ba" d="M887.83,236.57a7.09,7.09,0,0,0-8.47.67h-6.52a24.79,24.79,0,0,0-3.44-8.19l3.21-4.27a7.34,7.34,0,0,0,.82.08,7.07,7.07,0,1,0-7.08-7.07,5.56,5.56,0,0,0,.09.82l-4.28,3.2a24.42,24.42,0,0,0-8.18-3.43v-6.52a7.08,7.08,0,1,0-10.62,0v6.52a24.42,24.42,0,0,0-8.18,3.43l-4.28-3.2a5.71,5.71,0,0,0,.09-.82,7.08,7.08,0,1,0-7.08,7.07,7.34,7.34,0,0,0,.82-.08l3.21,4.27a24.79,24.79,0,0,0-3.44,8.19H818a7.08,7.08,0,1,0-4.68,12.38,7,7,0,0,0,4.68-1.77h6.52a24.7,24.7,0,0,0,3.44,8.19l-3.21,4.27a7.34,7.34,0,0,0-.82-.08,7.08,7.08,0,1,0,7.08,7.08,5.56,5.56,0,0,0-.09-.82l4.28-3.21a24.58,24.58,0,0,0,8.18,3.44v6.52a7.08,7.08,0,1,0,10.62,0v-6.52a24.71,24.71,0,0,0,8.19-3.44l4.27,3.21a5.56,5.56,0,0,0-.09.82,7.08,7.08,0,1,0,7.08-7.08,7.34,7.34,0,0,0-.82.08L869.4,256a24.7,24.7,0,0,0,3.44-8.19h6.52a7,7,0,0,0,4.68,1.77,7.07,7.07,0,0,0,3.79-13.05Zm-14.4-22.32a3.54,3.54,0,1,1-3.54,3.54A3.54,3.54,0,0,1,873.43,214.25Zm-53,3.54a3.54,3.54,0,1,1,3.53,3.53A3.53,3.53,0,0,1,820.38,217.79Zm3.53,53a3.54,3.54,0,1,1,3.54-3.53A3.53,3.53,0,0,1,823.91,270.84ZM877,267.31a3.54,3.54,0,1,1-3.53-3.54A3.53,3.53,0,0,1,877,267.31Zm-48.81-5.64"/><path fill="#0aa68b" d="M887.83,236.57a7.09,7.09,0,0,0-8.47.67h-6.52a24.79,24.79,0,0,0-3.44-8.19l3.21-4.27a7.34,7.34,0,0,0,.82.08,7.07,7.07,0,1,0-7.08-7.07,5.56,5.56,0,0,0,.09.82l-4.28,3.2a24.42,24.42,0,0,0-8.18-3.43v-6.52a7.08,7.08,0,1,0-10.62,0v6.52a24.42,24.42,0,0,0-8.18,3.43l-4.28-3.2a5.71,5.71,0,0,0,.09-.82,7.08,7.08,0,1,0-7.08,7.07,7.34,7.34,0,0,0,.82-.08l3.21,4.27a24.79,24.79,0,0,0-3.44,8.19H818a7.08,7.08,0,1,0-4.68,12.38,7,7,0,0,0,4.68-1.77h6.52a24.7,24.7,0,0,0,3.44,8.19l-3.21,4.27a7.34,7.34,0,0,0-.82-.08,7.08,7.08,0,1,0,7.08,7.08,5.56,5.56,0,0,0-.09-.82l4.28-3.21a24.58,24.58,0,0,0,8.18,3.44v6.52a7.08,7.08,0,1,0,10.62,0v-6.52a24.71,24.71,0,0,0,8.19-3.44l4.27,3.21a5.56,5.56,0,0,0-.09.82,7.08,7.08,0,1,0,7.08-7.08,7.34,7.34,0,0,0-.82.08L869.4,256a24.7,24.7,0,0,0,3.44-8.19h6.52a7,7,0,0,0,4.68,1.77,7.07,7.07,0,0,0,3.79-13.05Zm-14.4-22.32a3.54,3.54,0,1,1-3.54,3.54A3.54,3.54,0,0,1,873.43,214.25Zm-27.14-4.46a3.51,3.51,0,0,1-1.16-2.61,3.54,3.54,0,0,1,7.08,0,3.51,3.51,0,0,1-1.16,2.61,1.74,1.74,0,0,0-.61,1.33v6.74a23.24,23.24,0,0,0-3.54,0v-6.74A1.74,1.74,0,0,0,846.29,209.79Zm-25.91,8a3.54,3.54,0,1,1,3.53,3.53A3.53,3.53,0,0,1,820.38,217.79Zm-3.13,26.53a1.77,1.77,0,0,0-1.34.6,3.42,3.42,0,0,1-2.61,1.16,3.54,3.54,0,1,1,0-7.07,3.42,3.42,0,0,1,2.61,1.16,1.75,1.75,0,0,0,1.34.61H824a26.14,26.14,0,0,0,0,3.54Zm6.66,26.52a3.54,3.54,0,1,1,3.54-3.53A3.53,3.53,0,0,1,823.91,270.84Zm27.14,4.46a3.54,3.54,0,1,1-4.76,0,1.74,1.74,0,0,0,.61-1.33v-6.73c.59,0,1.18.07,1.77.07s1.18,0,1.77-.07V274A1.74,1.74,0,0,0,851.05,275.3Zm25.91-8a3.54,3.54,0,1,1-3.53-3.54A3.53,3.53,0,0,1,877,267.31Zm-9.17-4.24-5.68-4.26a13.61,13.61,0,0,1-2.69,2,21.22,21.22,0,0,1-21.5,0,9.45,9.45,0,0,1-2.69-2l-5.68,4.26a7.14,7.14,0,0,0-1.4-1.4L832.4,256a10.28,10.28,0,0,1-2-2.7,21.15,21.15,0,0,1,0-21.49c.76-.93,1.34-1.91,2-2.7l-4.26-5.68a6.93,6.93,0,0,0,1.41-1.4l5.68,4.26c1-.63,1.92-1.53,2.71-2a21.16,21.16,0,0,1,21.45-.34,6.14,6.14,0,0,1,2.72,2.36l5.68-4.26a6.93,6.93,0,0,0,1.4,1.41l-4.25,5.67c.63.56.71.64,2,2.7a21.15,21.15,0,0,1,0,21.49,6.86,6.86,0,0,1-2,2.7l4.25,5.68A7.14,7.14,0,0,0,867.79,263.07Zm16.25-17a3.42,3.42,0,0,1-2.61-1.16,1.77,1.77,0,0,0-1.33-.6h-6.74a26.14,26.14,0,0,0,0-3.54h6.74a1.74,1.74,0,0,0,1.33-.61A3.42,3.42,0,0,1,884,239a3.54,3.54,0,1,1,0,7.07Z"/><circle cx="839.91" cy="232.52" r="3.59" fill="#0aa68b"/><circle cx="858.27" cy="248.84" r="2.75" fill="#0aa68b"/><circle cx="855.52" cy="232.52" r="2.75" fill="#0aa68b"/><circle cx="841.12" cy="249.63" r="6.91" fill="#0aa68b"/></g><g><path fill="#9d9f9f" d="M898.62,547.13a4.2,4.2,0,0,1,4.2-4.2H1028V826.19H902.82a4.21,4.21,0,0,1-4.2-4.21Z"/><path fill="#454851" d="M1028,542.93V826.19h31.35a4.21,4.21,0,0,0,4.2-4.21V547.13a4.2,4.2,0,0,0-4.2-4.2Z"/><rect width="97.18" height="39.34" x="909.54" y="558.33" fill="#e3eaf3" rx="4.01"/><path fill="#abbcca" d="M1013.23,558.33h-10.34a4,4,0,0,1,3.83,4.21v30.93a4,4,0,0,1-3.83,4.2h10.34a4,4,0,0,0,3.83-4.2V562.54A4,4,0,0,0,1013.23,558.33Z"/><ellipse cx="958.13" cy="578" fill="#9d9f9f" rx="6.13" ry="6.73"/><rect width="97.18" height="39.34" x="909.54" y="611.61" fill="#e3eaf3" rx="4.01"/><path fill="#abbcca" d="M1013.23,611.61h-10.34a4,4,0,0,1,3.83,4.21v30.93a4,4,0,0,1-3.83,4.2h10.34a4,4,0,0,0,3.83-4.2V615.82A4,4,0,0,0,1013.23,611.61Z"/><ellipse cx="958.13" cy="631.28" fill="#9d9f9f" rx="6.13" ry="6.73"/><rect width="97.18" height="39.34" x="909.54" y="664.89" fill="#e3eaf3" rx="4.01"/><path fill="#abbcca" d="M1013.23,664.89h-10.34a4,4,0,0,1,3.83,4.21V700a4,4,0,0,1-3.83,4.2h10.34a4,4,0,0,0,3.83-4.2V669.1A4,4,0,0,0,1013.23,664.89Z"/><ellipse cx="958.13" cy="684.56" fill="#9d9f9f" rx="6.13" ry="6.73"/><rect width="97.18" height="39.34" x="909.54" y="718.17" fill="#e3eaf3" rx="4.01"/><path fill="#abbcca" d="M1013.23,718.17h-10.34a4,4,0,0,1,3.83,4.21v30.93a4,4,0,0,1-3.83,4.2h10.34a4,4,0,0,0,3.83-4.2V722.38A4,4,0,0,0,1013.23,718.17Z"/><ellipse cx="958.13" cy="737.84" fill="#9d9f9f" rx="6.13" ry="6.73"/><rect width="97.18" height="39.34" x="909.54" y="771.45" fill="#e3eaf3" rx="4.01"/><path fill="#abbcca" d="M1013.23,771.45h-10.34a4,4,0,0,1,3.83,4.21v30.93a4,4,0,0,1-3.83,4.2h10.34a4,4,0,0,0,3.83-4.2V775.66A4,4,0,0,0,1013.23,771.45Z"/><ellipse cx="958.13" cy="791.12" fill="#9d9f9f" rx="6.13" ry="6.73"/></g></svg>